<svg xmlns="http://www.w3.org/2000/svg" viewBox="0 0 500 500"><g id="freepik--Floor--inject-14"><path id="freepik--floor--inject-14" d="M94.4,281.31c-85.93,46.66-85.92,122.32,0,169s225.26,46.66,311.19,0,85.92-122.32,0-169S180.34,234.64,94.4,281.31Z" style="fill:#fafafa"></path></g><g id="freepik--Symbols--inject-14"><g id="freepik--question-marks--inject-14"><path id="freepik--question-mark--inject-14" d="M461.53,242.82a4.54,4.54,0,0,0-3.15-1.48,4.34,4.34,0,0,0-1.66.24,4.43,4.43,0,0,0-1.43.87,4.66,4.66,0,0,0-1.47,3.12,4.14,4.14,0,0,0,.24,1.65,4.07,4.07,0,0,0,.87,1.42,4.72,4.72,0,0,0,3.15,1.49,4.3,4.3,0,0,0,3.1-1.08,4.18,4.18,0,0,0,1.05-1.42,4.37,4.37,0,0,0,.16-3.37A4.63,4.63,0,0,0,461.53,242.82Zm19.2-22.62a10.37,10.37,0,0,0-2.38-3.32,14.35,14.35,0,0,0-3.87-2.61,16.63,16.63,0,0,0-3.28-1.17,15.46,15.46,0,0,0-3.07-.44,15.3,15.3,0,0,0-2.89.15,21,21,0,0,0-2.67.57l.43,3.52a1.59,1.59,0,0,0,1,1.44,1.93,1.93,0,0,0,1.05.09c.44-.06,1-.11,1.58-.16a10.54,10.54,0,0,1,2.11.1,9.53,9.53,0,0,1,2.7.87,6.78,6.78,0,0,1,1.77,1.19,5,5,0,0,1,1.12,1.55,4.21,4.21,0,0,1,.38,1.75,4.38,4.38,0,0,1-.45,1.87,5.51,5.51,0,0,1-1.82,2.25A9.28,9.28,0,0,1,470,229a18.91,18.91,0,0,1-2.72.65,19.24,19.24,0,0,0-2.61.6,7.13,7.13,0,0,0-2.18,1.06,3.81,3.81,0,0,0-1.38,2l-1.58,4.51L464,240l2.42-3.56a2.94,2.94,0,0,1,1.52-1.13,15.58,15.58,0,0,1,2.24-.62l2.66-.56a12,12,0,0,0,2.79-1,10.48,10.48,0,0,0,2.65-1.86,10.28,10.28,0,0,0,2.21-3.18,10,10,0,0,0,1-4.06A9,9,0,0,0,480.73,220.2Z" style="fill:#f5f5f5"></path><path id="freepik--question-mark--inject-14" d="M286.45,190.91a4.36,4.36,0,0,0,1.33-1.19,4.25,4.25,0,0,0,.82-3.18,4.72,4.72,0,0,0-.58-1.65,4.41,4.41,0,0,0-1.17-1.32,4.22,4.22,0,0,0-1.49-.73,4.06,4.06,0,0,0-1.67-.08,4.6,4.6,0,0,0-3,1.76,4.3,4.3,0,0,0-.28,4.84,4.29,4.29,0,0,0,1.17,1.3,4.35,4.35,0,0,0,1.52.73,4.71,4.71,0,0,0,1.68.09A4.31,4.31,0,0,0,286.45,190.91Zm18.92,16.39a1.59,1.59,0,0,0-1.75,0,1.83,1.83,0,0,0-.66.82c-.2.39-.45.86-.76,1.39a10.48,10.48,0,0,1-1.27,1.69,9.27,9.27,0,0,1-2.24,1.74,6.89,6.89,0,0,1-2,.79,5.16,5.16,0,0,1-1.91.06,4.39,4.39,0,0,1-1.66-.68,4.23,4.23,0,0,1-1.29-1.42,5.46,5.46,0,0,1-.83-2.77,8.8,8.8,0,0,1,.39-2.69,19.8,19.8,0,0,1,1-2.62,18.69,18.69,0,0,0,1-2.5,7.2,7.2,0,0,0,.35-2.4,3.81,3.81,0,0,0-.88-2.27L290,192.61l-4.24,2.5,1.58,4a3,3,0,0,1,.08,1.89,18.54,18.54,0,0,1-.75,2.2l-1,2.52a12,12,0,0,0-.77,2.85,10.64,10.64,0,0,0,0,3.23,10.35,10.35,0,0,0,1.39,3.63,10.09,10.09,0,0,0,2.78,3.13,9,9,0,0,0,3.57,1.53,10.43,10.43,0,0,0,4.08-.09,14.53,14.53,0,0,0,4.34-1.73,17.36,17.36,0,0,0,2.82-2.05,16.41,16.41,0,0,0,2.09-2.29,15.51,15.51,0,0,0,1.5-2.47,19,19,0,0,0,1-2.53Z" style="fill:#f5f5f5"></path><path id="freepik--question-mark--inject-14" d="M430.77,44.29a3.55,3.55,0,0,1-1.69,1.44,20,20,0,0,1-2.59.88l-3.08.86a14.3,14.3,0,0,0-3.21,1.34,12.89,12.89,0,0,0-3,2.37,12.23,12.23,0,0,0-2.36,3.9,11.74,11.74,0,0,0-.9,4.84,10.46,10.46,0,0,0,1.15,4.41,12.22,12.22,0,0,0,3,3.73,16.66,16.66,0,0,0,4.73,2.77A20.77,20.77,0,0,0,426.81,72a19.25,19.25,0,0,0,3.64.29,18.6,18.6,0,0,0,3.38-.39,23.22,23.22,0,0,0,3.09-.87l-.76-4.1a1.88,1.88,0,0,0-1.27-1.61,2.2,2.2,0,0,0-1.24,0q-.76.15-1.83.3a11.9,11.9,0,0,1-2.49,0,11.17,11.17,0,0,1-3.23-.82,8.2,8.2,0,0,1-2.16-1.27,5.92,5.92,0,0,1-1.43-1.73,4.87,4.87,0,0,1-.57-2,5,5,0,0,1,.39-2.23,6.49,6.49,0,0,1,2-2.77,10.88,10.88,0,0,1,2.78-1.58,22.73,22.73,0,0,1,3.14-1,24.55,24.55,0,0,0,3-.9,8.82,8.82,0,0,0,2.48-1.4,4.57,4.57,0,0,0,1.47-2.46l1.53-5.39-5.38-2.14ZM444.44,30.7a5,5,0,0,0-1.13-1.61A5.35,5.35,0,0,0,441.55,28a5.28,5.28,0,0,0-2-.39,5.14,5.14,0,0,0-1.92.39,5.19,5.19,0,0,0-3.14,4.87,5,5,0,0,0,.43,1.93A5.4,5.4,0,0,0,436,36.4a5.13,5.13,0,0,0,7.34,0,5.34,5.34,0,0,0,1.11-1.73,5.28,5.28,0,0,0,.39-2A5.06,5.06,0,0,0,444.44,30.7Z" style="fill:#f5f5f5"></path><path id="freepik--question-mark--inject-14" d="M478,183.35a4.88,4.88,0,0,0-.63-2,5.11,5.11,0,0,0-3.11-2.46,5.34,5.34,0,0,0-2-.16,4.79,4.79,0,0,0-2,.63,5.26,5.26,0,0,0-1.6,1.35,5,5,0,0,0-.9,1.76,4.92,4.92,0,0,0-.15,2,5.27,5.27,0,0,0,.64,2,5.18,5.18,0,0,0,1.33,1.59,4.89,4.89,0,0,0,3.69,1,5.44,5.44,0,0,0,2-.66,5.18,5.18,0,0,0,2.5-3.07A5,5,0,0,0,478,183.35Zm-8.51-13.63a3.53,3.53,0,0,1-.05-2.23,19.55,19.55,0,0,1,.95-2.56c.4-.92.83-1.9,1.29-2.93a15,15,0,0,0,1-3.33,13,13,0,0,0,0-3.8,12.35,12.35,0,0,0-1.53-4.3,11.78,11.78,0,0,0-3.18-3.75,10.39,10.39,0,0,0-4.15-1.9,12.1,12.1,0,0,0-4.8,0,17,17,0,0,0-5.15,1.92,20.06,20.06,0,0,0-3.36,2.32,18.37,18.37,0,0,0-2.53,2.64,18,18,0,0,0-1.84,2.86,26.47,26.47,0,0,0-1.28,2.94l3.66,2a1.84,1.84,0,0,0,2.05,0,2.21,2.21,0,0,0,.81-.94c.24-.46.55-1,.93-1.61a11.26,11.26,0,0,1,1.54-1.95,10.9,10.9,0,0,1,2.68-2,7.84,7.84,0,0,1,2.35-.88,5.82,5.82,0,0,1,2.24,0,5,5,0,0,1,1.94.84,5.16,5.16,0,0,1,1.47,1.71,6.42,6.42,0,0,1,.9,3.27,11.07,11.07,0,0,1-.53,3.16,23.42,23.42,0,0,1-1.25,3,23.5,23.5,0,0,0-1.22,2.91A8.5,8.5,0,0,0,462,170a4.5,4.5,0,0,0,1,2.69l3.22,4.59,5.06-2.81Z" style="fill:#f5f5f5"></path><path id="freepik--question-mark--inject-14" d="M443.23,219.32a1.25,1.25,0,0,0-.71.09l-1,.33a7.36,7.36,0,0,1-1.41.24,6.42,6.42,0,0,1-1.91-.19,4.58,4.58,0,0,1-1.34-.53,3.22,3.22,0,0,1-1-.86,3,3,0,0,1-.51-1.11,3.19,3.19,0,0,1,0-1.3,3.73,3.73,0,0,1,.88-1.74,6,6,0,0,1,1.45-1.14,11.57,11.57,0,0,1,1.7-.82,13.26,13.26,0,0,0,1.65-.77,4.8,4.8,0,0,0,1.28-1A2.53,2.53,0,0,0,443,209l.4-3.2-3.25-.75-1.08,2.7a2,2,0,0,1-.84,1,11.34,11.34,0,0,1-1.4.73l-1.68.75a8.62,8.62,0,0,0-1.7,1,7.46,7.46,0,0,0-1.49,1.61,7,7,0,0,0-1,2.42,6.81,6.81,0,0,0-.09,2.83,6,6,0,0,0,1,2.41,7.05,7.05,0,0,0,2,1.86,9.76,9.76,0,0,0,2.93,1.17,11.77,11.77,0,0,0,2.34.31,10.87,10.87,0,0,0,2.09-.16,9.74,9.74,0,0,0,1.89-.51,12.94,12.94,0,0,0,1.68-.76l-.79-2.26A1.06,1.06,0,0,0,443.23,219.32Zm2.82-19.45a3.13,3.13,0,0,0-.39-1.06,3,3,0,0,0-.78-.81,3.14,3.14,0,0,0-2.3-.53,2.89,2.89,0,0,0-1.06.39,2.86,2.86,0,0,0-.83.76,2.94,2.94,0,0,0-.5,1.09,3,3,0,0,0,.38,2.25,3.41,3.41,0,0,0,.78.83,2.92,2.92,0,0,0,1.09.49,2.87,2.87,0,0,0,1.2,0,2.93,2.93,0,0,0,1.07-.4,3,3,0,0,0,.81-.78,3.3,3.3,0,0,0,.49-1.08A3.2,3.2,0,0,0,446.05,199.87Z" style="fill:#f5f5f5"></path><path id="freepik--question-mark--inject-14" d="M259.22,163a3.81,3.81,0,0,0-.85-.9,3.22,3.22,0,0,0-1.19-.53,3.17,3.17,0,0,0-1.3,0,3.45,3.45,0,0,0-1.16.44,3.23,3.23,0,0,0-.88.85,3.38,3.38,0,0,0-.52,1.18,3.22,3.22,0,0,0,.39,2.43,3,3,0,0,0,.86.88,3.29,3.29,0,0,0,1.19.53,3.37,3.37,0,0,0,1.3,0,3.55,3.55,0,0,0,1.15-.43,3.4,3.4,0,0,0,.9-.84,3.17,3.17,0,0,0,.53-1.18,3.3,3.3,0,0,0,0-1.29A3.22,3.22,0,0,0,259.22,163Zm10.44-17.54a6.49,6.49,0,0,0-1.14-2.62,7.61,7.61,0,0,0-2.23-2,10.37,10.37,0,0,0-3.19-1.25,12.25,12.25,0,0,0-2.53-.32,11.07,11.07,0,0,0-2.27.17,11.25,11.25,0,0,0-2.05.57,14.54,14.54,0,0,0-1.82.84l.87,2.45a1.14,1.14,0,0,0,.94.87,1.39,1.39,0,0,0,.77-.1c.3-.11.67-.24,1.1-.36a7.53,7.53,0,0,1,1.53-.27,6.88,6.88,0,0,1,2.07.19,5.55,5.55,0,0,1,1.46.57,3.66,3.66,0,0,1,1.05.93,3.11,3.11,0,0,1,.54,1.2,3.06,3.06,0,0,1,0,1.41,4,4,0,0,1-.94,1.9,6.77,6.77,0,0,1-1.57,1.24,13.62,13.62,0,0,1-1.84.9,14,14,0,0,0-1.78.85,4.93,4.93,0,0,0-1.39,1.11,2.74,2.74,0,0,0-.67,1.65l-.42,3.48,3.52.8,1.17-2.94a2.14,2.14,0,0,1,.91-1,11.52,11.52,0,0,1,1.5-.8l1.82-.83a8.91,8.91,0,0,0,1.85-1.13,7.8,7.8,0,0,0,1.6-1.76,7.63,7.63,0,0,0,1.08-2.63A7.28,7.28,0,0,0,269.66,145.46Z" style="fill:#f5f5f5"></path><path id="freepik--question-mark--inject-14" d="M233.2,214.14a1.48,1.48,0,0,0-.77.1c-.31.12-.67.24-1.1.37a7.58,7.58,0,0,1-1.53.26,6.83,6.83,0,0,1-2.07-.19,4.83,4.83,0,0,1-1.46-.57,3.66,3.66,0,0,1-1.05-.93,3.13,3.13,0,0,1-.55-1.2,3.21,3.21,0,0,1,0-1.41,4.07,4.07,0,0,1,.95-1.9,6.51,6.51,0,0,1,1.56-1.24,15.06,15.06,0,0,1,1.85-.9,17.32,17.32,0,0,0,1.78-.84,5.48,5.48,0,0,0,1.39-1.11,2.93,2.93,0,0,0,.67-1.66l.41-3.48-3.52-.79-1.17,2.93a2.17,2.17,0,0,1-.9,1,12.38,12.38,0,0,1-1.51.8l-1.82.83a8.8,8.8,0,0,0-1.85,1.14,8,8,0,0,0-1.6,1.75,7.63,7.63,0,0,0-1.08,2.63,7.44,7.44,0,0,0-.08,3.07,6.49,6.49,0,0,0,1.14,2.62,7.46,7.46,0,0,0,2.23,2,10.47,10.47,0,0,0,3.19,1.25,12.34,12.34,0,0,0,2.54.32,11.13,11.13,0,0,0,2.27-.17,11.25,11.25,0,0,0,2.05-.57,16,16,0,0,0,1.82-.83l-.87-2.46A1.19,1.19,0,0,0,233.2,214.14Zm3-21.13a3,3,0,0,0-.43-1.14,3.09,3.09,0,0,0-.85-.88,3.25,3.25,0,0,0-1.2-.52,3.13,3.13,0,0,0-1.29-.05,3.46,3.46,0,0,0-1.15.43,3.27,3.27,0,0,0-.9.84,3,3,0,0,0-.53,1.18,3.21,3.21,0,0,0,.42,2.44,3.3,3.3,0,0,0,.85.9,3.17,3.17,0,0,0,1.18.53,3.22,3.22,0,0,0,1.31,0,3.13,3.13,0,0,0,1.15-.44,3,3,0,0,0,.88-.85,3.3,3.3,0,0,0,.52-1.18A3.13,3.13,0,0,0,236.15,193Z" style="fill:#f5f5f5"></path><path id="freepik--question-mark--inject-14" d="M459.81,84.27a3.38,3.38,0,0,0-.84-.89,3.1,3.1,0,0,0-1.18-.54,3.23,3.23,0,0,0-1.31,0,3.43,3.43,0,0,0-1.16.43,3.23,3.23,0,0,0-.88.85,3.27,3.27,0,0,0-.53,1.17,3.18,3.18,0,0,0,0,1.3,3.12,3.12,0,0,0,.42,1.14,3.26,3.26,0,0,0,.85.89,3.47,3.47,0,0,0,1.19.53,3.37,3.37,0,0,0,1.3,0,3.24,3.24,0,0,0,1.15-.42,3.2,3.2,0,0,0,1.44-2,3.3,3.3,0,0,0,0-1.29A3.27,3.27,0,0,0,459.81,84.27Zm10.54-17.48a6.62,6.62,0,0,0-1.13-2.62,7.74,7.74,0,0,0-2.22-2,10.79,10.79,0,0,0-3.18-1.26,12.43,12.43,0,0,0-2.54-.34,11.84,11.84,0,0,0-2.27.16,12.11,12.11,0,0,0-2.05.56,15.36,15.36,0,0,0-1.83.83l.86,2.46a1.17,1.17,0,0,0,.94.87,1.3,1.3,0,0,0,.77-.1c.3-.11.67-.23,1.1-.35a6.88,6.88,0,0,1,3.6-.06,5.06,5.06,0,0,1,1.45.58,3.66,3.66,0,0,1,1,.93,3.09,3.09,0,0,1,.51,2.61,4.11,4.11,0,0,1-1,1.9,7,7,0,0,1-1.57,1.24,14.94,14.94,0,0,1-1.85.88,14.86,14.86,0,0,0-1.79.84,5.24,5.24,0,0,0-1.39,1.1,2.81,2.81,0,0,0-.68,1.65l-.43,3.48,3.51.81L461.45,78a2.14,2.14,0,0,1,.91-1,11.14,11.14,0,0,1,1.51-.79l1.82-.82a9.25,9.25,0,0,0,1.86-1.13,8.21,8.21,0,0,0,1.61-1.74,7.83,7.83,0,0,0,1.09-2.63A7.46,7.46,0,0,0,470.35,66.79Z" style="fill:#f5f5f5"></path><path id="freepik--question-mark--inject-14" d="M87.33,234.63A11.4,11.4,0,0,0,84.72,231a16,16,0,0,0-4.25-2.87,19,19,0,0,0-3.61-1.29,17.09,17.09,0,0,0-3.38-.48,17.45,17.45,0,0,0-3.17.16,25.39,25.39,0,0,0-2.94.63l.48,3.87a1.74,1.74,0,0,0,1.09,1.58,2,2,0,0,0,1.16.1c.48-.06,1.05-.12,1.72-.17a11.29,11.29,0,0,1,2.33.11,10.06,10.06,0,0,1,3,.95,7.57,7.57,0,0,1,2,1.31,5.62,5.62,0,0,1,1.23,1.7,4.63,4.63,0,0,1-.08,4,6.07,6.07,0,0,1-2,2.47,9.87,9.87,0,0,1-2.69,1.31,21.7,21.7,0,0,1-3,.72,21,21,0,0,0-2.88.65,8.32,8.32,0,0,0-2.39,1.17,4.26,4.26,0,0,0-1.52,2.21L64,254l4.89,2.31,2.66-3.91a3.32,3.32,0,0,1,1.67-1.24,18.37,18.37,0,0,1,2.46-.68l2.93-.62a13.48,13.48,0,0,0,3.07-1.06,11.84,11.84,0,0,0,2.91-2A11.33,11.33,0,0,0,87,243.28a11.08,11.08,0,0,0,1.12-4.46A9.83,9.83,0,0,0,87.33,234.63Zm-21.1,24.86a4.68,4.68,0,0,0-1.56-1.16,4.75,4.75,0,0,0-1.9-.47,4.61,4.61,0,0,0-3.39,1.23,4.76,4.76,0,0,0-1.14,1.55,4.88,4.88,0,0,0-.48,1.87,4.73,4.73,0,0,0,.26,1.81,4.53,4.53,0,0,0,1,1.57A5.11,5.11,0,0,0,60.56,267a4.93,4.93,0,0,0,1.88.48,5,5,0,0,0,1.82-.25,4.81,4.81,0,0,0,1.59-.94A4.64,4.64,0,0,0,67,264.78a4.8,4.8,0,0,0,.17-3.71A5,5,0,0,0,66.23,259.49Z" style="fill:#f5f5f5"></path><path id="freepik--question-mark--inject-14" d="M103.53,53.93a12.46,12.46,0,0,0-3-3.73,17.15,17.15,0,0,0-4.73-2.77,20,20,0,0,0-3.93-1.14,18.17,18.17,0,0,0-7,.1,23.65,23.65,0,0,0-3.09.86l.76,4.1A1.86,1.86,0,0,0,83.77,53,2.16,2.16,0,0,0,85,53c.51-.11,1.12-.21,1.84-.3a11.78,11.78,0,0,1,2.48,0,10.86,10.86,0,0,1,3.23.82,7.79,7.79,0,0,1,2.16,1.27,5.53,5.53,0,0,1,1.43,1.73,4.83,4.83,0,0,1,.57,2,5.06,5.06,0,0,1-.38,2.22,6.51,6.51,0,0,1-2,2.77,10.65,10.65,0,0,1-2.79,1.58,22,22,0,0,1-3.14,1,22.94,22.94,0,0,0-3,.89,8.6,8.6,0,0,0-2.48,1.41,4.58,4.58,0,0,0-1.47,2.45l-1.52,5.4,5.37,2.14L87.88,74a3.47,3.47,0,0,1,1.7-1.44,19.3,19.3,0,0,1,2.58-.89l3.08-.85a14.3,14.3,0,0,0,3.21-1.34,12.89,12.89,0,0,0,3-2.37,12.23,12.23,0,0,0,2.36-3.9,11.8,11.8,0,0,0,.9-4.84A10.4,10.4,0,0,0,103.53,53.93ZM82.66,81.87a5.29,5.29,0,0,0-3.8-1.52,5.38,5.38,0,0,0-1.94.41,5,5,0,0,0-1.6,1.13,5.16,5.16,0,0,0-1.12,1.73,5.28,5.28,0,0,0-.39,2,5.2,5.2,0,0,0,.4,1.9,4.91,4.91,0,0,0,1.13,1.61A5.37,5.37,0,0,0,77.1,90.3a5.28,5.28,0,0,0,2,.39,5,5,0,0,0,1.93-.4A5.13,5.13,0,0,0,82.7,89.2a5,5,0,0,0,1.13-1.74,4.94,4.94,0,0,0,.37-2,5.18,5.18,0,0,0-.42-1.94A5.41,5.41,0,0,0,82.66,81.87Z" style="fill:#f5f5f5"></path><path id="freepik--question-mark--inject-14" d="M49.49,175.83a4.33,4.33,0,0,0-1.23-1.22,4.87,4.87,0,0,0-1.59-.66,4.56,4.56,0,0,0-3.51.7,4.61,4.61,0,0,0-1.23,1.22,4.4,4.4,0,0,0-.64,1.59,4.55,4.55,0,0,0,0,1.8,4.61,4.61,0,0,0,.68,1.68,4.46,4.46,0,0,0,1.2,1.21,4.29,4.29,0,0,0,1.59.64,4.7,4.7,0,0,0,1.83,0,4.47,4.47,0,0,0,1.68-.68,4.72,4.72,0,0,0,1.23-1.21,4.56,4.56,0,0,0,.68-1.58,4.46,4.46,0,0,0,0-1.82A4.36,4.36,0,0,0,49.49,175.83Zm3.8-25.64a10.27,10.27,0,0,0-1.65-4,9,9,0,0,0-2.94-2.7,10.9,10.9,0,0,0-4-1.3,14.82,14.82,0,0,0-4.79.22,18.39,18.39,0,0,0-3.43,1A16.65,16.65,0,0,0,33.67,145a17.06,17.06,0,0,0-2.29,1.89A21.14,21.14,0,0,0,29.52,149L32,151.63a1.63,1.63,0,0,0,1.7.58,1.91,1.91,0,0,0,.93-.56c.32-.32.72-.69,1.2-1.1a11,11,0,0,1,1.8-1.21,9.68,9.68,0,0,1,2.76-.93,7.17,7.17,0,0,1,2.2-.1,5.33,5.33,0,0,1,1.87.59,4.37,4.37,0,0,1,1.38,1.22,4.42,4.42,0,0,1,.78,1.82,5.77,5.77,0,0,1-.13,3,9.61,9.61,0,0,1-1.29,2.48,19.33,19.33,0,0,1-1.86,2.2,21,21,0,0,0-1.79,2.09,7.59,7.59,0,0,0-1.15,2.22,4,4,0,0,0,.08,2.5L42,171.08l5-1-.17-4.42a3.06,3.06,0,0,1,.56-1.87,18.08,18.08,0,0,1,1.47-1.88l1.86-2.09a12.07,12.07,0,0,0,1.71-2.51,11.13,11.13,0,0,0,1.06-3.15A10.89,10.89,0,0,0,53.29,150.19Z" style="fill:#f5f5f5"></path><path id="freepik--question-mark--inject-14" d="M43.3,238.32a1.55,1.55,0,0,0-.84.11c-.34.12-.74.26-1.21.39a8.33,8.33,0,0,1-1.69.29,7.36,7.36,0,0,1-2.27-.23,5.4,5.4,0,0,1-1.6-.63,4.1,4.1,0,0,1-1.15-1,3.33,3.33,0,0,1-.56-2.86A4.32,4.32,0,0,1,35,232.27a7.37,7.37,0,0,1,1.72-1.36,15.91,15.91,0,0,1,2-1,17.81,17.81,0,0,0,2-.92,6,6,0,0,0,1.53-1.21A3.2,3.2,0,0,0,43,226l.47-3.82-3.87-.9-1.29,3.22a2.45,2.45,0,0,1-1,1.16,13.39,13.39,0,0,1-1.66.87l-2,.89a9.85,9.85,0,0,0-2,1.24,9.14,9.14,0,0,0-1.77,1.92,8.42,8.42,0,0,0-1.2,2.89,8.09,8.09,0,0,0-.1,3.38,7.08,7.08,0,0,0,1.23,2.87,8.45,8.45,0,0,0,2.44,2.22,11.7,11.7,0,0,0,3.5,1.39,13.56,13.56,0,0,0,2.79.37,12.64,12.64,0,0,0,2.5-.18,12.86,12.86,0,0,0,2.25-.61,16,16,0,0,0,2-.91l-.94-2.7A1.27,1.27,0,0,0,43.3,238.32Zm3.37-23.2a3.61,3.61,0,0,0-.47-1.26A3.59,3.59,0,0,0,44,212.31a3.65,3.65,0,0,0-1.43-.06,3.54,3.54,0,0,0-2.89,4.1,3.56,3.56,0,0,0,.49,1.26,4,4,0,0,0,.93,1,3.43,3.43,0,0,0,1.3.59,3.51,3.51,0,0,0,1.44.05,3.67,3.67,0,0,0,1.26-.48,3.47,3.47,0,0,0,1-.93,3.56,3.56,0,0,0,.57-1.29A3.43,3.43,0,0,0,46.67,215.12Z" style="fill:#f5f5f5"></path><path id="freepik--question-mark--inject-14" d="M52.52,56.14a1.37,1.37,0,0,0-.77.09c-.3.11-.67.23-1.1.36a7.58,7.58,0,0,1-1.53.26,6.87,6.87,0,0,1-2.07-.2,5,5,0,0,1-1.45-.58,3.68,3.68,0,0,1-1.05-.94,3,3,0,0,1-.54-1.2,3.07,3.07,0,0,1,0-1.41,4,4,0,0,1,1-1.89,6.77,6.77,0,0,1,1.57-1.24,15,15,0,0,1,1.85-.89,14.69,14.69,0,0,0,1.78-.83,5.33,5.33,0,0,0,1.4-1.1,2.84,2.84,0,0,0,.68-1.66l.43-3.47-3.52-.82L48,43.55a2.14,2.14,0,0,1-.91,1.05,12.4,12.4,0,0,1-1.51.79l-1.82.82a8.57,8.57,0,0,0-1.86,1.13,8,8,0,0,0-1.61,1.74,7.83,7.83,0,0,0-1.09,2.63,7.46,7.46,0,0,0-.1,3.07,6.48,6.48,0,0,0,1.13,2.62,7.75,7.75,0,0,0,2.22,2,10.68,10.68,0,0,0,3.18,1.26,12.43,12.43,0,0,0,2.54.34,11.82,11.82,0,0,0,2.27-.17,11.23,11.23,0,0,0,2.05-.55,15.36,15.36,0,0,0,1.83-.83L53.46,57A1.16,1.16,0,0,0,52.52,56.14ZM55.58,35a3.12,3.12,0,0,0-.42-1.14,3.27,3.27,0,0,0-2-1.42,3.37,3.37,0,0,0-1.3-.05,3.46,3.46,0,0,0-1.15.43,3.26,3.26,0,0,0-.91.83,3.17,3.17,0,0,0-.53,1.18,3.3,3.3,0,0,0,0,1.29,3.22,3.22,0,0,0,.45,1.15,3.26,3.26,0,0,0,2,1.44,3.41,3.41,0,0,0,1.31,0,3.13,3.13,0,0,0,1.15-.44,3,3,0,0,0,.89-.84,3.4,3.4,0,0,0,.53-1.18A3.31,3.31,0,0,0,55.58,35Z" style="fill:#f5f5f5"></path></g></g><g id="freepik--Plants--inject-14"><g id="freepik--plants--inject-14"><path d="M424.07,398.75l-.18,0-5.11-1.91a.43.43,0,0,1-.28-.32c0-.14-3.16-14.3,8.54-31.8,8.35-12.5,20.14-19.94,26.83-16.95a7.75,7.75,0,0,1,4.83,6.07,9,9,0,0,1-3.71,8.05c-.6.47-1.52,1.11-2.69,1.91-7.24,4.94-24.19,16.52-27.8,34.61a.46.46,0,0,1-.23.31A.36.36,0,0,1,424.07,398.75Zm-4.73-2.7,4.37,1.63c3.91-18.16,20.81-29.71,28.07-34.67,1.16-.79,2.07-1.41,2.65-1.86a8.1,8.1,0,0,0,3.36-7.23,6.78,6.78,0,0,0-4.29-5.35c-6.3-2.81-17.59,4.49-25.7,16.62C417.15,381.12,419,394.16,419.34,396.05Z" style="fill:#42409F"></path><path d="M421.17,397.67h-.06a.46.46,0,0,1-.42-.49c1.87-21.38,18.82-40.38,29.21-43.57a.46.46,0,0,1,.27.88c-10.27,3.14-26.79,22.49-28.57,42.77A.46.46,0,0,1,421.17,397.67Z" style="fill:#42409F"></path><path d="M419,396.84a.49.49,0,0,1-.2,0l-3.44-1.46a.45.45,0,0,1-.27-.33c-.05-.21-4.17-21.26,3.37-48.24,3.83-13.74,13.44-26.53,22.83-30.4,4.51-1.86,8.74-1.71,12.56.46a6.86,6.86,0,0,1,3.76,4.76c.92,5.36-5.29,12.52-11.87,20.11-4.61,5.31-9.37,10.79-11.81,15.83a.46.46,0,0,1-.82-.4c2.5-5.14,7.3-10.68,11.94-16,6.43-7.42,12.51-14.43,11.66-19.35a5.93,5.93,0,0,0-3.31-4.13c-3.56-2-7.52-2.16-11.77-.41-9.15,3.77-18.53,16.31-22.3,29.8-7,25.25-3.82,45.22-3.39,47.59l3.22,1.36a.45.45,0,0,1-.16.87Z" style="fill:#42409F"></path><path d="M419.45,383.76h0a.44.44,0,0,1-.44-.46c.81-33.31,22-57.79,27.95-61.75a.45.45,0,1,1,.51.75c-5.84,3.91-26.75,28.08-27.55,61A.46.46,0,0,1,419.45,383.76Z" style="fill:#42409F"></path></g><g id="freepik--plants--inject-14"><path d="M89.73,397.28a.46.46,0,0,1-.23-.31c-3.61-18.09-20.56-29.67-27.8-34.61-1.17-.8-2.09-1.43-2.69-1.91a9,9,0,0,1-3.71-8.05,7.77,7.77,0,0,1,4.83-6.07c6.69-3,18.48,4.46,26.83,16.95,11.7,17.5,8.58,31.66,8.54,31.8a.47.47,0,0,1-.28.33l-5.11,1.9-.18,0A.36.36,0,0,1,89.73,397.28Zm-3.53-33.5c-8.11-12.13-19.4-19.43-25.7-16.62a6.78,6.78,0,0,0-4.29,5.35,8.09,8.09,0,0,0,3.36,7.23c.58.45,1.49,1.07,2.65,1.86,7.26,5,24.16,16.51,28.07,34.67l4.37-1.63C95,392.75,96.85,379.71,86.2,363.78Z" style="fill:#42409F"></path><path d="M92.83,396.26h.06a.47.47,0,0,0,.42-.5c-1.87-21.38-18.82-40.38-29.21-43.57a.46.46,0,0,0-.57.31.45.45,0,0,0,.3.57c10.27,3.14,26.79,22.49,28.57,42.77A.46.46,0,0,0,92.83,396.26Z" style="fill:#42409F"></path><path d="M95,395.43a.36.36,0,0,0,.2,0l3.44-1.46a.44.44,0,0,0,.27-.32c0-.21,4.17-21.27-3.37-48.25-3.83-13.74-13.43-26.53-22.83-30.4-4.51-1.86-8.74-1.71-12.56.46a6.86,6.86,0,0,0-3.76,4.76c-.92,5.36,5.29,12.52,11.87,20.11,4.61,5.31,9.37,10.8,11.81,15.83a.45.45,0,0,0,.61.21.46.46,0,0,0,.21-.61c-2.49-5.14-7.29-10.68-11.94-16-6.43-7.42-12.51-14.42-11.66-19.35a5.93,5.93,0,0,1,3.31-4.13c3.56-2,7.52-2.16,11.77-.41,9.15,3.78,18.53,16.31,22.3,29.81,7,25.24,3.82,45.21,3.39,47.58l-3.22,1.36a.46.46,0,0,0-.24.6A.45.45,0,0,0,95,395.43Z" style="fill:#42409F"></path><path d="M94.55,382.35h0a.44.44,0,0,0,.44-.46c-.81-33.3-22-57.79-27.95-61.75a.45.45,0,0,0-.63.12.46.46,0,0,0,.12.64c5.84,3.9,26.75,28.07,27.55,61A.46.46,0,0,0,94.55,382.35Z" style="fill:#42409F"></path></g></g><g id="freepik--Shadows--inject-14"><ellipse id="freepik--Shadow--inject-14" cx="147.06" cy="420.56" rx="73.61" ry="42.5" style="fill:#e0e0e0"></ellipse><ellipse id="freepik--shadow--inject-14" cx="367.73" cy="421.97" rx="73.61" ry="42.5" style="fill:#e0e0e0"></ellipse></g><g id="freepik--speech-bubble-2--inject-14"><g id="freepik--speech-bubble--inject-14"><g id="freepik--speech-bubble--inject-14"><path d="M288,53.1a26.29,26.29,0,0,0,36.9,37.19l7.7,2.69a1.53,1.53,0,0,0,1.85-2.17l-3.88-7.18A26.28,26.28,0,0,0,288,53.1Zm38.42,32.79a24.23,24.23,0,1,1-2.66-34.15A24.22,24.22,0,0,1,326.43,85.89Z" style="fill:#455a64"></path><circle cx="308.02" cy="70.14" r="24.23" transform="translate(-4.5 24.04) rotate(-4.44)" style="fill:#fff"></circle></g><path d="M298.25,56.31a17.61,17.61,0,0,1,1.88-1.45,13.85,13.85,0,0,1,2.22-1.19,14.25,14.25,0,0,1,2.59-.8,15,15,0,0,1,3-.29,12.47,12.47,0,0,1,4,.61,8.85,8.85,0,0,1,3.1,1.74,7.88,7.88,0,0,1,2,2.72,8.8,8.8,0,0,1,.7,3.58,9.08,9.08,0,0,1-.55,3.33,9.39,9.39,0,0,1-1.4,2.45,10.78,10.78,0,0,1-1.84,1.8l-1.88,1.43a14.35,14.35,0,0,0-1.54,1.32,2.58,2.58,0,0,0-.77,1.46l-.58,3.7h-4.29l-.43-4.14a3.37,3.37,0,0,1,.34-2.09,6.19,6.19,0,0,1,1.32-1.64A16.36,16.36,0,0,1,308,67.4a16.43,16.43,0,0,0,1.9-1.52A7.93,7.93,0,0,0,311.39,64a4.78,4.78,0,0,0,.6-2.45,3.71,3.71,0,0,0-.34-1.63,3.78,3.78,0,0,0-.95-1.25,4.57,4.57,0,0,0-1.46-.8,6.06,6.06,0,0,0-1.84-.27,8.3,8.3,0,0,0-2.45.31,9.16,9.16,0,0,0-1.7.71c-.46.26-.85.5-1.18.71a1.61,1.61,0,0,1-.86.32,1.38,1.38,0,0,1-1.32-.76ZM303,83.4a4,4,0,0,1,.29-1.49,3.55,3.55,0,0,1,.8-1.22,3.94,3.94,0,0,1,2.74-1.12,3.64,3.64,0,0,1,1.51.31,3.89,3.89,0,0,1,1.21.81,3.86,3.86,0,0,1,.83,4.22,3.84,3.84,0,0,1-2,2,3.8,3.8,0,0,1-1.51.29,3.85,3.85,0,0,1-1.52-.29,3.55,3.55,0,0,1-1.22-.8,3.46,3.46,0,0,1-.8-1.2A3.94,3.94,0,0,1,303,83.4Z" style="fill:#42409F"></path></g></g><g id="freepik--speech-bubble-1--inject-14"><g id="freepik--speech-bubble--inject-14"><g id="freepik--speech-bubble--inject-14"><path d="M196.82,50.15a26.31,26.31,0,0,0-5.51,33.48l-3.88,7.18A1.53,1.53,0,0,0,189.28,93l7.7-2.69a26.29,26.29,0,1,0-.16-40.14Zm1.3,1.59a24.22,24.22,0,1,1-2.66,34.15A24.22,24.22,0,0,1,198.12,51.74Z" style="fill:#455a64"></path><circle cx="213.87" cy="70.14" r="24.23" transform="translate(127.39 277.94) rotate(-85.56)" style="fill:#fff"></circle></g><path d="M204.09,56.31A18.83,18.83,0,0,1,206,54.86a13.85,13.85,0,0,1,2.22-1.19,14.25,14.25,0,0,1,2.59-.8,15,15,0,0,1,3-.29,12.47,12.47,0,0,1,4,.61,8.85,8.85,0,0,1,3.1,1.74,7.73,7.73,0,0,1,2,2.72,8.64,8.64,0,0,1,.71,3.58,9.08,9.08,0,0,1-.55,3.33,9.68,9.68,0,0,1-1.4,2.45,10.78,10.78,0,0,1-1.84,1.8L218,70.24a15.21,15.21,0,0,0-1.53,1.32,2.58,2.58,0,0,0-.77,1.46l-.59,3.7h-4.28l-.43-4.14a3.37,3.37,0,0,1,.34-2.09A6.19,6.19,0,0,1,212,68.85a16.36,16.36,0,0,1,1.84-1.45,16.43,16.43,0,0,0,1.9-1.52A8.19,8.19,0,0,0,217.24,64a4.78,4.78,0,0,0,.6-2.45,3.72,3.72,0,0,0-.35-1.63,3.53,3.53,0,0,0-1-1.25,4.42,4.42,0,0,0-1.45-.8,6.06,6.06,0,0,0-1.84-.27,8.3,8.3,0,0,0-2.45.31,9.16,9.16,0,0,0-1.7.71c-.46.26-.86.5-1.18.71a1.61,1.61,0,0,1-.86.32,1.38,1.38,0,0,1-1.32-.76Zm4.8,27.09a3.77,3.77,0,0,1,.29-1.49,3.55,3.55,0,0,1,.8-1.22,3.89,3.89,0,0,1,2.74-1.12,3.57,3.57,0,0,1,1.5.31,3.83,3.83,0,0,1,1.22.81,3.86,3.86,0,0,1,.83,4.22,3.81,3.81,0,0,1-2.05,2,3.72,3.72,0,0,1-1.5.29,3.93,3.93,0,0,1-1.53-.29,3.6,3.6,0,0,1-1.21-.8,3.46,3.46,0,0,1-.8-1.2A3.76,3.76,0,0,1,208.89,83.4Z" style="fill:#42409F"></path></g></g><g id="freepik--character-2--inject-14"><g id="freepik--Character--inject-14"><g id="freepik--Bottom--inject-14"><path d="M336.11,330.1c1.38,22.17,3.38,49.23,3.45,50.35.4,6-.13,8.41-2.49,10.94-4.95,5.31-12.12,10.36-18.32,15,.9,2.37,9.42,3.41,13.11,1.61a94.68,94.68,0,0,0,13.75-8.77c5.1-3.77,11.6-6.8,11.69-12.53a5.88,5.88,0,0,1,.17-1c.1-3.35,7.9-40.93,8.55-52.4.06-1,.1-2.06.12-3.16Z" style="fill:#c8856a"></path><path d="M412.18,351.45c-.12-6.08-.34-12.6-.75-18.39-.07-1-.15-2-.23-3H381.5c2.61,10.22,5.41,20.83,7.33,28.11,2.57,9.75,7.75,23.72,8.63,33.45.27,2.33,2.9,25.14,4,30.36s12.47,5.36,13.2-3.62c.49-6-1.6-25.29-1.81-28.15C411.73,375,413.44,375.2,412.18,351.45Z" style="fill:#c8856a"></path><path d="M309.27,413.57c-.32,0-.83,3.47.87,5,1.95,1.73,7.72,4.59,15.4,3.68s11.85-3.24,14.94-5.77,7.44-6.11,10.91-6.84c3.23-.67,6.74-2.09,7.78-3.08s.95-5.41.95-5.41Z" style="fill:#263238"></path><path d="M357.63,384s.58,0,.76,1c.23,1.22.44,4.77.93,6.78.67,2.79,1.08,8.5.64,10.76s-5.72,3.78-9.08,5a42.51,42.51,0,0,0-10.95,6.74c-3.63,2.93-11.24,5.83-16.23,5.85-7.63,0-12.55-2.09-14-4.85-1.85-3.41-1.41-6.49,7.39-10.45,1.67-.75,7.53-4.14,9.53-5.37a45.43,45.43,0,0,0,6-4.37,35.31,35.31,0,0,0,2.71-2.62,12.3,12.3,0,0,0,2.25-2.81c.1-.23.17-.5.26-.74a12.33,12.33,0,0,0,.6-2.05c.14-.73.24-1.79.94-2.22a5.86,5.86,0,0,1,3.14-.33,36.78,36.78,0,0,1,4.73,1,4.39,4.39,0,0,1,3.23,2.31,6.37,6.37,0,0,1,.69,3.19c0,.51,0,1,0,1.54,0,.21-.1.61.21.52s.63-.85.74-1.11c.25-.57.41-1.18.68-1.74a9,9,0,0,1,1.11-1.84,8.83,8.83,0,0,1,1.4-1.4,13.93,13.93,0,0,0,1.52-1A3.56,3.56,0,0,0,357.63,384Z" style="fill:#37474f"></path><path d="M315.63,405.6c11,.88,15.5,8.86,15.92,13.09a26,26,0,0,1-7.85,1.56c-7.63,0-12.86-2.09-14.36-4.85C307.6,412.19,307.77,408.49,315.63,405.6Z" style="fill:#fafafa"></path><path d="M333.24,407a.55.55,0,0,0,.43-.88c-1.52-1.89-7-5.56-11-5.17a.54.54,0,1,0,.1,1.07c3.75-.35,8.85,3.27,10.06,4.78A.53.53,0,0,0,333.24,407Z" style="fill:#f0f0f0"></path><path d="M338,404.3a.54.54,0,0,0,.42-.88c-1.52-1.9-7-5.57-11-5.17a.54.54,0,0,0-.48.59.53.53,0,0,0,.59.48c3.75-.36,8.85,3.27,10.05,4.78A.55.55,0,0,0,338,404.3Z" style="fill:#f0f0f0"></path><path d="M342.47,401.18a.48.48,0,0,0,.34-.11.54.54,0,0,0,.08-.76c-1.51-1.9-7-5.57-11-5.18a.54.54,0,0,0,.11,1.08c3.74-.36,8.85,3.27,10.05,4.77A.55.55,0,0,0,342.47,401.18Z" style="fill:#f0f0f0"></path><path d="M346.82,398.07a.54.54,0,0,0,.33-.12.53.53,0,0,0,.1-.75c-2.09-2.7-7.91-5.64-11.92-5.24a.54.54,0,0,0-.49.59.55.55,0,0,0,.59.48c3.62-.35,9.11,2.44,11,4.83A.57.57,0,0,0,346.82,398.07Z" style="fill:#f0f0f0"></path><path d="M397.87,426.09c.31,5.21,1.11,8.66,3,11.72s5.34,4,8.87,3.12,8.05-3.29,9.06-7.78,1.6-7.57.8-12.4Z" style="fill:#263238"></path><path d="M412.71,388.39c1.46.11,1.89,7.1,2.73,14.1.89,7.51,3.13,10.61,3.94,16.76.92,7-.25,10.17-2.71,14.42s-11.18,8.42-15.48,2.33c-3.5-5-3.65-10.46-3.33-17.48a155.46,155.46,0,0,0-.47-17.79c-.28-5.26-1.44-10.57-.18-11.15.1.77.19,1.75.29,2.51a12.8,12.8,0,0,0,.47,2.81c.15.39.48.8.61.16a4.42,4.42,0,0,0,0-1.31c-.22-1.94.76-2.09,1.29-2.24a61.93,61.93,0,0,1,6.75-1c1.11-.08,4.94-.24,5.44.39a4.28,4.28,0,0,1,.49,2c.12,1.06.37,1.84.4,1.5.07-.75-.08-2.72-.1-3.2s-.09-1.08-.1-1.53S412.74,388.83,412.71,388.39Z" style="fill:#37474f"></path><path d="M419.78,423.33A17.53,17.53,0,0,1,417.06,434c-2.46,4.25-11.88,8.43-16.18,2.34-2.14-3-2.71-6.61-3-10.26C400.45,421.4,415.72,419.33,419.78,423.33Z" style="fill:#fafafa"></path><path d="M401.05,418.45a.61.61,0,0,0,.18-.05c.06,0,6.79-2.81,13.34-1.3a.53.53,0,0,0,.64-.4.54.54,0,0,0-.4-.65c-6.93-1.6-13.79,1.25-14.05,1.37a.54.54,0,0,0-.25.72A.55.55,0,0,0,401.05,418.45Z" style="fill:#f0f0f0"></path><path d="M414.24,411.86a.53.53,0,0,0,.46-.36.54.54,0,0,0-.34-.68c-6.52-2.21-13.76,1.1-14,1.25a.54.54,0,0,0-.23.72.55.55,0,0,0,.73.23c.06,0,7.12-3.24,13.18-1.18A.62.62,0,0,0,414.24,411.86Z" style="fill:#f0f0f0"></path><path d="M414,406.92a.56.56,0,0,0,.46-.35.54.54,0,0,0-.33-.69c-7.17-2.57-14,1.05-14.3,1.21a.54.54,0,1,0,.56.92c.06,0,6.7-3.5,13.38-1.12A.45.45,0,0,0,414,406.92Z" style="fill:#f0f0f0"></path><path d="M413.66,402.06a.56.56,0,0,0,.45-.35.54.54,0,0,0-.32-.69c-6.72-2.52-14.11,1.2-14.39,1.36a.54.54,0,1,0,.54.93c.06,0,7.23-3.62,13.47-1.28A.54.54,0,0,0,413.66,402.06Z" style="fill:#ebebeb"></path><path d="M397.79,193.41c6.54,11.93,10.06,21.68,10.72,57.14s-.49,45.57-.35,49.84,4,13.73,4.48,34.91c.38,17.93.44,31.54.44,31.54s-2,4.27-10.07,5c-7.43.66-11.11-2.13-11.11-2.13s-9-29.58-11.64-42.31c-3.07-14.71-11.67-49.67-11.67-49.67l-2.52,28.9a115,115,0,0,1,.47,27.25c-2.14,18.48-5.08,29.05-5.08,29.05a41.83,41.83,0,0,1-12.25,1.86,25.38,25.38,0,0,1-11.14-2.85s-5.18-42.91-5.18-63.85-5.51-70.62,4.87-104.87Z" style="fill:#37474f"></path><path d="M338.51,219.75c3.15,8.65,14.64,14.7,19.69,15.91L365.1,273l1,33.66,2.52-28.9-8.3-48.84S346.29,227.89,338.51,219.75Zm48.85.05c.83,3.4,1.58,6.82,2.38,10.24s1.57,6.84,2.41,10.28a68.11,68.11,0,0,0-.7-10.59,105.81,105.81,0,0,0-1.91-10.44,93.71,93.71,0,0,0-3-10.19,50.57,50.57,0,0,0-4.55-9.61c1.06,3.39,2,6.75,2.89,10.13S386.58,216.4,387.36,219.8Zm6-6.54c1.14,2.05,2.22,4.12,3.31,6.2l3.22,6.34a28.27,28.27,0,0,0-1.62-7,45.16,45.16,0,0,0-3-6.58,51.75,51.75,0,0,0-3.89-6,38.16,38.16,0,0,0-4.79-5.38c1.05,2.18,2.19,4.25,3.33,6.32S392.21,211.19,393.32,213.26Zm-5.15,89.46C386.34,292.89,385,283,383.75,273s-2.5-19.91-3.89-29.86c.61,10,1.33,20,2.32,30s2.19,20,4,29.91,3.87,19.71,5.94,29.54,4.2,19.63,6.5,29.41q-2.28-14.88-4.95-29.72C391.92,322.44,390.05,312.54,388.17,302.72Zm-47.87-34.5,1.81-28.88c-1.49,9.54-2.65,19.13-3.54,28.74s-1.69,19.22-1.72,29c.32,9.71,1.06,19.3,1.85,28.93s1.75,19.22,2.89,28.81q-.4-14.48-1.15-28.92l-.73-14.45c-.24-4.8-.53-9.64-.63-14.4s.2-9.58.42-14.38S340,273,340.3,268.22Z" style="fill:#263238"></path></g><g id="freepik--Top--inject-14"><polygon id="freepik--Hair--inject-14" points="394.03 84.41 394.03 139.51 352.67 139.51 352.67 88.09 394.03 84.41" style="fill:#263238"></polygon><g id="freepik--Arn--inject-14"><path d="M357,123.37c-1.48-.79-5.2-3.32-6.86-3.86a11.36,11.36,0,0,0-7.93.31c-3.69,1.42-7.54,6.35-11.76,12s-20,26.95-20,26.95,1.88,20.64,8.31,19.31c5.34-1.09,28-26.88,28-26.88C355.53,140.61,357.91,129.59,357,123.37Z" style="fill:#c8856a"></path><path d="M323.83,172.6a24.3,24.3,0,0,0,3.3-15.63c-.93-6.14-4.92-14-4.92-14l-5.16,7Z" style="fill:#af6152"></path><path d="M298.24,114.76s.15-.58-.61-1.45-1.42-1.33-2.28-2.29-2.1-2.77-1.49-3.81,3,.32,4.7,1.73a9.84,9.84,0,0,0,5.46,2.79c2.82.53,6,1.71,7.09,4.66Z" style="fill:#af6152"></path><path d="M289.8,117.8c-1.18-1.9-3.24-3.62-4.37-4.91a18.91,18.91,0,0,1-2.66-4.29c-.8-1.64-2.11-3.51-1.87-4.11s1.42-.92,2.4,0c0,0-.21-1.25-.53-2.44s-1-2.38-.5-3.24,1.91-.2,2.47.76.85,1.55.85,1.55,1-.41,1.82,1.47a9.75,9.75,0,0,1,.73,2.4,9.24,9.24,0,0,1,1.81,3.07,17.66,17.66,0,0,1,1.92,3.39,10.43,10.43,0,0,1,3.7,1.78c1.3,1.17,1.42,1.65,4.32,1.54,1.95-.07,4.69-.72,7-.38s4.41,1.07,5.19,4,1.29,5.07,2.24,8c.71,2.2,1.92,4.83,5.77,14.76,3,7.72,3.63,8.89,5,12.81a22.35,22.35,0,0,1,.36,14.37c-2.09,6.71-4.44,9.95-7.57,9.86-6.63-.19-11.34-10.29-12-14.81s-1.42-20.95-1.81-26.66-1.73-10.4-2.8-11.35a33,33,0,0,0-6.81-3.92C291.86,120.21,291.65,120.59,289.8,117.8Z" style="fill:#c8856a"></path><path d="M311.11,116.39a12.4,12.4,0,0,1,1.3,3.74c.37,1.29.74,2.57,1.14,3.84s.8,2.55,1.23,3.81,1.22,2.93,1.69,4.18c-.35-1.29-1.07-3-1.45-4.25s-.77-2.56-1.15-3.84l-1.17-3.82-.58-1.92A4.82,4.82,0,0,0,311.11,116.39Z" style="fill:#af6152"></path><path d="M283.3,104.5a9.79,9.79,0,0,1,1,1.53c.28.53.54,1.08.77,1.62l0,.08.1.07a7.67,7.67,0,0,1,.76.58,8.82,8.82,0,0,1,.67.7,6.12,6.12,0,0,1,1,1.66l.06.15.13,0a5.57,5.57,0,0,1,.7.27,6.11,6.11,0,0,1,.67.35,7.31,7.31,0,0,1,.65.43c.21.16.4.34.6.52a4.52,4.52,0,0,0-1-1.25,4.6,4.6,0,0,0-.67-.49,4.42,4.42,0,0,0-.75-.39l.19.19a5.37,5.37,0,0,0-1-1.91,6.91,6.91,0,0,0-.76-.77,5,5,0,0,0-.91-.62l.14.15a9.62,9.62,0,0,0-1-1.59A5.82,5.82,0,0,0,283.3,104.5Z" style="fill:#af6152"></path><path d="M285.59,101.13a5.17,5.17,0,0,1,.17,1,6.78,6.78,0,0,1,0,1v.06l.06.09a8.06,8.06,0,0,1,.93,1.94,5.71,5.71,0,0,1,.3,2.08v.22l.19.1a6.66,6.66,0,0,1,1,.69,8.93,8.93,0,0,1,.88.86,12.25,12.25,0,0,1,.78,1c.26.34.47.71.7,1.07a6.85,6.85,0,0,0-.44-1.22,6.36,6.36,0,0,0-.65-1.13,6.79,6.79,0,0,0-.85-1,5.07,5.07,0,0,0-1.08-.83l.19.33a5.34,5.34,0,0,0,0-1.2,6.51,6.51,0,0,0-.31-1.15,7.88,7.88,0,0,0-.52-1,6.27,6.27,0,0,0-.7-1l.05.15a4.27,4.27,0,0,0-.17-1.07A3.87,3.87,0,0,0,285.59,101.13Z" style="fill:#af6152"></path><path d="M293.28,113.4a5,5,0,0,0,2.06,1,7,7,0,0,0,2.31.21c-.37-.11-.75-.19-1.12-.27s-.74-.17-1.1-.27A19.38,19.38,0,0,1,293.28,113.4Z" style="fill:#af6152"></path><path d="M304.24,114.26a9.68,9.68,0,0,1,3.38,2.35,7.73,7.73,0,0,1,1.13,1.68,18.34,18.34,0,0,1,.77,2,5.62,5.62,0,0,0-1.38-4.11A5.62,5.62,0,0,0,304.24,114.26Z" style="fill:#af6152"></path></g><g id="freepik--Chest--inject-14"><path d="M403.67,205.4c-3.91-12.06-7.52-20-6.86-25.65,1-8.65,5.34-17.52,6.16-23.45,1.73-12.46,1.39-23.19-5.35-32.32-4.22.65-8.1,2.63-14.48-.08l-19.33-.11c-3.63.36-5.25-.21-8.54-1.42-3.86,4-11.3,10.83-17.38,19.75-6.28,9.22-8.87,19.89.73,27.86a122.72,122.72,0,0,1,1,12.31c-.39,5.38-3.82,13.9-5.46,23.46C348.91,219.39,387.09,219.56,403.67,205.4Z" style="fill:#42409F"></path><path d="M403.67,205.4c-3.91-12.06-7.52-20-6.86-25.65,1-8.65,5.34-17.52,6.16-23.45,1.73-12.46,1.39-23.19-5.35-32.32-4.22.65-8.1,2.63-14.48-.08l-19.33-.11c-3.63.36-5.25-.21-8.54-1.42-3.86,4-11.3,10.83-17.38,19.75-6.28,9.22-8.87,19.89.73,27.86a122.72,122.72,0,0,1,1,12.31c-.39,5.38-3.82,13.9-5.46,23.46C348.91,219.39,387.09,219.56,403.67,205.4Z" style="fill:#fff;opacity:0.5"></path></g><g id="freepik--Head--inject-14"><path d="M383.93,111.22c0-3.73,5.2-10.11,8.08-16.67s3.26-16.93-2.75-20.71c-.72-10.26-21.37-15.72-34.59-8.17S342.38,88,350.78,92,383.93,111.22,383.93,111.22Z" style="fill:#263238"></path><g id="freepik--head--inject-14"><g id="freepik--head--inject-14"><path d="M386.56,106.08a6.76,6.76,0,0,0,6.26-2.37c3.43-3.68,3-7.46,1.5-10-1.27-2.09-4.45-3.45-6.7-2.08-2.42,1.47-2.51,2.7-3.43,4.38s-3.23.33-2.37-6.47c-4.62-2.25-2.06-8.62-4.54-11.83-3.15-4.09-9.15-2.13-12.41-.64a2.65,2.65,0,0,1-2.88-.43,6.93,6.93,0,0,0-7.82-1.12c-2.85,1.48-4.23,3.57-3.81,10.48a18.59,18.59,0,0,1-.31,4.71,48.65,48.65,0,0,0-.85,5c-.41,6.51,1.51,14.19,4.88,17.45a13.49,13.49,0,0,0,9.8,3.43l-.07,7.23s-11,9.32,1.46,9.32c14.26,0,17.87-9.21,17.87-9.21l.79-19.79S384.18,105.6,386.56,106.08Z" style="fill:#c8856a"></path><path d="M363.88,116.56c7.51-.17,15.6-4.18,17.85-10.38-.65,6.47-5.19,9.91-9.59,11.53a25.24,25.24,0,0,1-8.34,1.4Z" style="fill:#af6152"></path></g><polygon points="364.47 87.76 362.86 100.72 356.02 97.53 364.47 87.76" style="fill:#af6152"></polygon><path d="M367.82,90.77a1.93,1.93,0,1,0,2-2A2,2,0,0,0,367.82,90.77Z" style="fill:#263238"></path><path d="M353.65,90.21a1.92,1.92,0,1,0,1.8-2.11A1.95,1.95,0,0,0,353.65,90.21Z" style="fill:#263238"></path><path d="M373.37,85l-3.46-3.17a2.46,2.46,0,0,0,.16,3.4A2.29,2.29,0,0,0,373.37,85Z" style="fill:#263238"></path><path d="M358.06,81.81l-4.27,2A2.27,2.27,0,0,0,356.87,85,2.48,2.48,0,0,0,358.06,81.81Z" style="fill:#263238"></path><path d="M367,106.12a1.73,1.73,0,0,1-2.47.23,2.15,2.15,0,0,1-.36-2.59,2,2,0,0,1,.6-.66,1.8,1.8,0,0,0-.94-.5,3.19,3.19,0,0,1,2.29.18,2.25,2.25,0,0,1,1,1A2.56,2.56,0,0,1,367,106.12Z" style="fill:#af6152"></path><path d="M364.19,106a1.85,1.85,0,0,0,.31.37,1.72,1.72,0,0,0,2.47-.22,2.53,2.53,0,0,0,.3-1.49A4.41,4.41,0,0,0,364.19,106Z" style="fill:#ffa8a7"></path></g></g><g id="freepik--arn--inject-14"><path d="M393.32,124.84a18.85,18.85,0,0,1,6.89-1.45c2.76.2,4.34.65,6.42,2.59,2.83,2.65,4.7,7.31,6.55,13.28,2.05,6.6,10.52,33.07,10.52,33.07s-9.33,18-14.68,14.45c-4.43-3-15.45-34.71-15.45-34.71C389.53,139.2,390.2,130.14,393.32,124.84Z" style="fill:#c8856a"></path><path d="M404.72,174.05c-1.28-6.78,1.13-11.92,3.14-15.85,4.44-8.71,6.95-13.74,6.95-13.74L420,160.69Z" style="fill:#af6152"></path><path d="M437.14,128.12s-.09-.57.73-1.35,1.53-1.14,2.46-2,2.34-2.49,1.85-3.56-3,0-4.75,1.2a9.65,9.65,0,0,1-5.62,2.14c-2.79.24-6,1.05-7.38,3.81Z" style="fill:#af6152"></path><path d="M445,132c1.34-1.73,3.53-3.19,4.76-4.33a18,18,0,0,0,3-3.9c1-1.52,2.41-3.21,2.25-3.81s-1.3-1-2.34-.24c0,0,.33-1.2.77-2.32s1.19-2.22.82-3.11-1.84-.39-2.49.49-1,1.42-1,1.42-.87-.5-1.92,1.24a9.82,9.82,0,0,0-1,2.27,8.89,8.89,0,0,0-2.08,2.8,17.49,17.49,0,0,0-2.22,3.1,10.36,10.36,0,0,0-3.79,1.35c-1.38,1-1.55,1.46-4.36,1.06-1.9-.27-4.5-1.19-6.77-1.09s-4.4.57-5.47,3.32-1.78,4.8-3,7.55c-.92,2.07-2.37,4.51-7.14,13.78-3.72,7.21-4.46,8.28-6.17,12a21.94,21.94,0,0,0-1.84,14c1.34,6.76,3.3,10.16,6.35,10.39,6.49.5,12.11-8.85,13.2-13.19s3.56-20.25,4.52-25.78,2.77-9.94,3.9-10.76a31.77,31.77,0,0,1,7-3.11C442.78,134.09,443,134.49,445,132Z" style="fill:#c8856a"></path><path d="M424.43,128.38a12.58,12.58,0,0,0-1.66,3.51c-.49,1.21-1,2.43-1.5,3.63s-1,2.4-1.6,3.58-1.48,2.72-2.07,3.89c.47-1.22,1.35-2.78,1.85-4s1-2.41,1.51-3.61l1.54-3.61.77-1.8A4.52,4.52,0,0,1,424.43,128.38Z" style="fill:#af6152"></path><path d="M452.75,119.68a10.33,10.33,0,0,0-1.1,1.39c-.33.49-.64,1-.91,1.5l-.05.07-.1.06a6.14,6.14,0,0,0-.8.49,7.15,7.15,0,0,0-.73.61,5.81,5.81,0,0,0-1.15,1.51l-.07.14-.13,0a5.38,5.38,0,0,0-.71.19,5.8,5.8,0,0,0-.69.27c-.23.11-.46.22-.68.35s-.42.29-.64.44a4.59,4.59,0,0,1,1.13-1.11,5.35,5.35,0,0,1,.7-.41,5.84,5.84,0,0,1,.77-.29l-.2.16a5.3,5.3,0,0,1,1.2-1.75,5.85,5.85,0,0,1,.82-.67,5.3,5.3,0,0,1,.94-.52l-.14.13a9.9,9.9,0,0,1,1.12-1.44A6,6,0,0,1,452.75,119.68Z" style="fill:#af6152"></path><path d="M450.86,116.16a6,6,0,0,0-.27,1,6.74,6.74,0,0,0-.09,1v.07l-.06.07a7.6,7.6,0,0,0-1.11,1.8,5.37,5.37,0,0,0-.51,2v.21l-.2.09a6,6,0,0,0-1,.57,9.68,9.68,0,0,0-1,.74,11.77,11.77,0,0,0-.86.87c-.29.3-.53.63-.8,1a7,7,0,0,1,.56-1.13,6.85,6.85,0,0,1,.75-1,6.11,6.11,0,0,1,.94-.89,4.9,4.9,0,0,1,1.13-.7l-.21.3a4.59,4.59,0,0,1,.17-1.17,5.89,5.89,0,0,1,.42-1.08,6.89,6.89,0,0,1,.61-1,5.7,5.7,0,0,1,.78-.85l-.06.14a3.92,3.92,0,0,1,.28-1A3.83,3.83,0,0,1,450.86,116.16Z" style="fill:#af6152"></path><path d="M442.11,127.31a4.92,4.92,0,0,1-2.12.82,7.26,7.26,0,0,1-2.28,0c.38-.07.75-.1,1.12-.15l1.11-.15A15.35,15.35,0,0,0,442.11,127.31Z" style="fill:#af6152"></path><path d="M431.34,127a9.41,9.41,0,0,0-3.53,1.94,7.43,7.43,0,0,0-1.27,1.52,15.08,15.08,0,0,0-1,1.83,5.41,5.41,0,0,1,.49-2.08,5.32,5.32,0,0,1,1.28-1.77A5.49,5.49,0,0,1,431.34,127Z" style="fill:#af6152"></path></g></g></g></g><g id="freepik--character-1--inject-14"><g id="freepik--character--inject-14"><g id="freepik--bottom--inject-14"><path d="M179.36,365c-.79,9.92-1.18,18.28-1,20a19.73,19.73,0,0,0,6.21,12.52c5.19,5.32,8.86,7.43,15.31,12-.86,2.45-14.12,2.7-17.93.94a140.07,140.07,0,0,1-16.06-8.93c-5.3-3.73-6.57-6-6.8-11.92,0-.73-.57-5.51-.53-5.84-.07-1.37-.9-8.82-2-18Z" style="fill:#ffa8a7"></path><path d="M101.41,386l.61-23.65,23.3,1.16L121,387s-3,31.51-4.22,36.65c-4,16.58-17.45,9.89-19,1.1C96.69,418.94,101.41,386,101.41,386Z" style="fill:#ffa8a7"></path><path d="M210.41,418.81c.34,0,.61,3.85-1.36,5.34-2.27,1.72-8.78,4.37-17,2.74s-12.62-4.52-15.77-7.54-7.58-7.29-11.3-8.37c-3.45-1-9-3.36-10.07-4.52s-.58-6-.58-6Z" style="fill:#263238"></path><path d="M158.52,383.72a2.59,2.59,0,0,0-1.44,1.56c-.35,1.32-.47,3-1.16,5.17-1,3-1.88,9.19-1.59,11.7s7.77,5.11,11.33,6.75,7.76,4.89,11.34,8.27,11.74,7.3,17.17,7.73c8.29.67,13.81-1.24,15.66-4.12,2.3-3.57,1.53-7.48-7.72-12.54-1.75-1-7.85-5.15-9.92-6.65a49.27,49.27,0,0,1-6.17-5.28,37.89,37.89,0,0,1-2.72-3.08,13.38,13.38,0,0,1-2.22-3.25c-.09-.27-.14-.57-.22-.83a13.92,13.92,0,0,1-.48-2.29c-.1-.8-.12-2-.84-2.5s-12.72,1-13.64,2.31a7,7,0,0,0-1,3.42c-.06.56-.09,1.12-.13,1.68,0,.24.06.67-.27.55s-.61-1-.71-1.26c-.23-.65-.35-1.33-.6-2a5.75,5.75,0,0,0-1.06-2.11c-1.49-1.44-3.05-1.28-3.47-1.77C158.65,385.22,158.54,384.2,158.52,383.72Z" style="fill:#37474f"></path><path d="M202.62,408.52c-12.07,0-16.05,9.45-16.86,14a28.15,28.15,0,0,0,8.41,2.35c8.29.67,14.15-1.21,16-4.1C212.34,417.43,210.92,412.32,202.62,408.52Z" style="fill:#fafafa"></path><path d="M184.89,409.67a.61.61,0,0,1-.37-.16.59.59,0,0,1,0-.83c1.8-1.95,7.5-6,11.83-5.25a.59.59,0,1,1-.2,1.16c-4-.7-9.34,3.35-10.78,4.89A.55.55,0,0,1,184.89,409.67Z" style="fill:#f5f5f5"></path><path d="M179.91,406.3a.61.61,0,0,1-.36-.15.6.6,0,0,1,0-.84c1.81-1.95,7.51-6,11.84-5.25a.61.61,0,0,1,.48.69.59.59,0,0,1-.68.48c-4-.71-9.35,3.34-10.78,4.89A.61.61,0,0,1,179.91,406.3Z" style="fill:#f5f5f5"></path><path d="M175.34,402.53a.57.57,0,0,1-.36-.16.59.59,0,0,1,0-.83c1.81-2,7.52-6,11.84-5.25a.61.61,0,0,1,.48.69.59.59,0,0,1-.68.48c-4-.71-9.35,3.34-10.78,4.89A.6.6,0,0,1,175.34,402.53Z" style="fill:#f5f5f5"></path><path d="M170.87,398.77a.59.59,0,0,1-.36-.16.59.59,0,0,1,0-.83c2.49-2.77,8.52-6,12.85-5.24a.59.59,0,0,1-.21,1.16c-3.89-.68-9.56,2.42-11.77,4.87A.58.58,0,0,1,170.87,398.77Z" style="fill:#f5f5f5"></path><path d="M119.54,428.48c-.41,5.93-1.37,9.85-3.5,13.31s-6.1,4.5-10.09,3.44-9.09-3.85-10.19-9S94,427.61,95,422.12Z" style="fill:#263238"></path><path d="M101.41,386c-1.94-.19-1.79,7.59-2.82,15.55-1.11,8.53-2.38,11.91-3.36,18.91-1.13,8,.16,11.58,2.9,16.46s12.58,9.73,17.53,2.85c4-5.61,4.26-11.87,4-19.87-.28-8.27.58-13.81,1.31-20.05.76-6.45,1.51-12.09.08-12.77l-.86,6.21c-.17.45-.82,1.55-1.06-.12-.07-.5.1-1.64.06-2.13a2.11,2.11,0,0,0-1.48-1.94,15.87,15.87,0,0,0-7-1.63c-3.22-.05-6-.19-7.82.72-1.08.54-1.07,1.57-1.19,2.58-.16,1.21-.19,1.95-.48,1.71C100.61,392,101.41,386,101.41,386Z" style="fill:#37474f"></path><path d="M94.72,425.05a20.06,20.06,0,0,0,3,12.2c2.74,4.87,13.38,9.76,18.32,2.88,2.47-3.42,3.16-7.49,3.54-11.65C116.67,423.1,99.38,420.55,94.72,425.05Z" style="fill:#fafafa"></path><path d="M116,419.73a.36.36,0,0,1-.2-.06c-.07,0-7.67-3.28-15.12-1.64a.61.61,0,1,1-.26-1.2c7.88-1.73,15.63,1.6,15.92,1.74a.61.61,0,0,1-.34,1.16Z" style="fill:#f5f5f5"></path><path d="M101.14,412.07a.62.62,0,0,1-.12-1.2c7.42-2.43,15.59,1.44,15.9,1.6a.61.61,0,1,1-.58,1.08c-.07,0-8-3.78-14.94-1.51A.57.57,0,0,1,101.14,412.07Z" style="fill:#f5f5f5"></path><path d="M101.46,406.44a.61.61,0,0,1-.13-1.19c8.17-2.83,15.91,1.38,16.2,1.56a.62.62,0,0,1,.2.85.6.6,0,0,1-.84.19c-.07,0-7.56-4.07-15.16-1.44A.63.63,0,0,1,101.46,406.44Z" style="fill:#f5f5f5"></path><path d="M101.93,400.91a.62.62,0,0,1-.51-.4.62.62,0,0,1,.37-.79c7.65-2.78,16,1.54,16.3,1.73a.61.61,0,0,1,.22.84.6.6,0,0,1-.84.22c-.07,0-8.16-4.22-15.27-1.63A.63.63,0,0,1,101.93,400.91Z" style="fill:#ebebeb"></path><path d="M111.07,197.91c-1.57,15.52-2.1,19.35-3.19,53.84-1,33.45-1.06,38.35-1.25,42.38-.43,9.25-5.71,12.95-6.13,34.74-.39,20,.31,44.45.31,44.45s3.64,3.37,11.23,3.78A23.94,23.94,0,0,0,124,374.73s10.16-44.78,13.34-58.54c3.76-16.2,9.85-44.41,9.85-44.41s3.06,25.16,4.21,33.27c1.1,7.73-1.55,10.75.11,28.07,1.32,13.81,5.26,36.89,5.26,36.89a24,24,0,0,0,11.34,2.72c8.68-.4,11.42-3.37,11.42-3.37s4.86-51.64,4.91-71.39c.05-20.91.49-69.37-1.74-100.06Z" style="fill:#455a64"></path><path d="M147.17,271.78,151.62,237s11.28-3.42,18.32-11.35c-.34,5.74-10.21,13.43-14.91,14.74l-5.25,30.83,1.6,33.79Z" style="fill:#37474f"></path><path d="M131.5,202.54a47.48,47.48,0,0,0-3.94,9.22,85.78,85.78,0,0,0-2.51,9.7c-.64,3.28-1.14,6.59-1.45,9.91a64.34,64.34,0,0,0-.31,10c.68-3.27,1.3-6.52,1.93-9.78s1.22-6.49,1.89-9.72,1.31-6.47,2-9.69S130.62,205.77,131.5,202.54Z" style="fill:#37474f"></path><path d="M127.2,203.9a36.6,36.6,0,0,0-4.32,5.23,50.17,50.17,0,0,0-3.45,5.83,43.53,43.53,0,0,0-2.56,6.3,26.76,26.76,0,0,0-1.29,6.69l2.81-6.09c1-2,1.91-4,2.91-6s2-3.94,3-5.93S126.29,206,127.2,203.9Z" style="fill:#37474f"></path><path d="M134.14,242.29c-1.07,10.4-2,20.81-2.93,31.21s-3.05,21.91-4.58,32.21-8.91,50.78-10.12,61.16c2-10.26,10.55-50.5,12.19-60.86s3.5-21.95,4.13-32.38S133.87,252.74,134.14,242.29Z" style="fill:#37474f"></path><path d="M173,241.84l1.08,27.28c.14,4.55.33,9.09.44,13.63s.26,9.09.09,13.57-1.46,48-1.06,57.11c1.3-10.11,2.64-47.87,3.15-57,.18-9.2-.39-18.27-1-27.37S174.23,250.87,173,241.84Z" style="fill:#37474f"></path><path d="M155.73,364.69l1.29,9.56s4.75,2.35,12.71,1.84,9.79-3.23,9.79-3.23l.78-9.06s-3,2.34-10.27,2.66C160.62,366.87,155.73,364.69,155.73,364.69Z" style="fill:#37474f"></path><path d="M100.38,366.61l.3,9.54s3.76,3.06,11.69,3.83,11.44-2.07,11.44-2.07l1.64-8.43s-4,1.69-11.24,1A43.79,43.79,0,0,1,100.38,366.61Z" style="fill:#37474f"></path></g><g id="freepik--top--inject-14"><path d="M161.91,119.6a11.45,11.45,0,0,1,6.18-2.25c3.86-.32,7.82-.93,10.67.42,3.89,1.86,7.13,6.81,11.22,13.33s19.34,31,19.34,31-3.84,22.23-10.71,20.24c-5.69-1.66-28-31.61-28-31.61C162,138.43,160.38,126.26,161.91,119.6Z" style="fill:#ffa8a7"></path><path d="M193.62,175.91a26.46,26.46,0,0,1-2.23-17.25c1.54-6.59,6.56-14.81,6.56-14.81l5,8Z" style="fill:#f28f8f"></path><path d="M167.62,116.93c3.3-.6,5.77-1.56,10.64.11,3.22,1.1,6.71,5.15,11.18,12.13S202.49,150,202.49,150s-1,5.48-7,11a49.51,49.51,0,0,1-11,7.93l-18.38-22.34Z" style="fill:#37474f"></path><path d="M226.42,115.36s-.12-.63.78-1.52,1.66-1.31,2.67-2.28,2.52-2.83,1.95-4-3.31.07-5.24,1.46a10.72,10.72,0,0,1-6.18,2.55c-3.1.34-6.66,1.34-8.1,4.44Z" style="fill:#f28f8f"></path><path d="M235.31,119.4c1.44-2,3.83-3.65,5.17-5a20.4,20.4,0,0,0,3.26-4.42c1-1.71,2.59-3.63,2.39-4.3s-1.47-1.12-2.61-.2c0,0,.34-1.34.79-2.6s1.26-2.49.83-3.47-2.06-.38-2.76.61a18.85,18.85,0,0,0-1,1.61s-1-.53-2.11,1.43a10.78,10.78,0,0,0-1,2.55,10.05,10.05,0,0,0-2.24,3.17,19.35,19.35,0,0,0-2.37,3.51c-1.1.37-2.67.45-4.18,1.61s-1.68,1.66-4.81,1.3c-2.11-.25-5-1.19-7.56-1s-4.87.77-6,3.85-1.84,5.39-3.12,8.47c-1,2.33-2.51,5.08-7.55,15.52-3.92,8.12-4.72,9.33-6.51,13.47a24.4,24.4,0,0,0-1.64,15.56c1.68,7.47,4,11.19,7.36,11.36,7.21.37,13.2-10.18,14.29-15s3.36-22.6,4.28-28.77,2.78-11.14,4-12.07c2.1-1.58,5.84-2.94,7.74-3.66C232.86,121.83,233.06,122.26,235.31,119.4Z" style="fill:#ffa8a7"></path><path d="M212.3,116c-.94,1.14-1.19,2.6-1.73,3.95s-1,2.73-1.57,4.07-1.09,2.7-1.67,4-1.58,3.07-2.19,4.38c.48-1.37,1.42-3.12,1.94-4.48s1.06-2.71,1.58-4.06l1.6-4.05.8-2A5.41,5.41,0,0,1,212.3,116Z" style="fill:#f28f8f"></path><path d="M243.52,105.53a12,12,0,0,0-1.18,1.58c-.35.55-.68,1.12-1,1.69l-.05.08-.11.07a6.58,6.58,0,0,0-.88.57,7.46,7.46,0,0,0-.79.7,6.7,6.7,0,0,0-1.23,1.71l-.08.15-.14,0a5.21,5.21,0,0,0-.78.23c-.26.1-.52.2-.77.32s-.5.26-.73.41-.47.33-.7.51a5.07,5.07,0,0,1,1.22-1.27,5.35,5.35,0,0,1,.76-.47,5.83,5.83,0,0,1,.85-.35l-.22.18a6.19,6.19,0,0,1,2.18-2.74,5.24,5.24,0,0,1,1-.6l-.16.15a11,11,0,0,1,1.21-1.64A6.42,6.42,0,0,1,243.52,105.53Z" style="fill:#f28f8f"></path><path d="M241.33,101.68a5.29,5.29,0,0,0-.28,1.09,6.92,6.92,0,0,0-.07,1.1v.07l-.07.09a9.06,9.06,0,0,0-1.18,2,6,6,0,0,0-.5,2.23v.23l-.22.1a7.28,7.28,0,0,0-1.11.67,10.32,10.32,0,0,0-1,.85c-.32.32-.64.64-.93,1s-.57.72-.86,1.09a9.22,9.22,0,0,1,.59-1.28,7.57,7.57,0,0,1,.8-1.17,8.19,8.19,0,0,1,1-1,5.53,5.53,0,0,1,1.24-.81l-.23.34a5.2,5.2,0,0,1,.16-1.3,6.21,6.21,0,0,1,.43-1.21,7.12,7.12,0,0,1,.66-1.1,6.87,6.87,0,0,1,.83-1l-.06.16a5,5,0,0,1,.28-1.15A4,4,0,0,1,241.33,101.68Z" style="fill:#f28f8f"></path><path d="M231.92,114.32a5.65,5.65,0,0,1-2.33,1,8,8,0,0,1-2.53,0c.41-.09.83-.14,1.24-.2l1.22-.19A19.13,19.13,0,0,0,231.92,114.32Z" style="fill:#f28f8f"></path><path d="M220,114.3a10.58,10.58,0,0,0-3.87,2.26,8,8,0,0,0-1.37,1.73,15.76,15.76,0,0,0-1,2.06,6.11,6.11,0,0,1,.48-2.33,6,6,0,0,1,1.38-2A6.1,6.1,0,0,1,220,114.3Z" style="fill:#f28f8f"></path><g id="freepik--chest--inject-14"><path d="M111.85,122.07s-7.45,14.87-5.43,27.9c1.53,9.85,6.06,21.56,5.13,34.46-.8,11.07-2.36,26.73-2.36,26.73,11.57,9.43,63.24,12.41,74.58-2.35,0,0-.51-18-.9-36.77-.29-14-.81-26.42-1.8-33.16-2.44-16.56-10.72-20.83-13.45-21.95-5.66,1.3-8.9,2.79-12.85,2.65a94.39,94.39,0,0,0-15.1.87c-9.89,1-11.94.64-17.77-.38C121.9,120.07,114.21,121.45,111.85,122.07Z" style="fill:#f5f5f5"></path><path d="M167.53,118c3.9,1.71,10.42,6.68,12.54,21,.86,5.87,1.45,16.68,1.79,33,.35,17.12.81,33.74.89,36.41-4.93,6-18.17,9.58-35.58,9.58-15.78,0-31.11-3.07-36.92-7.34.29-2.9,1.6-16.43,2.31-26.2.65-9.08-1.36-17.61-3.13-25.14-.79-3.37-1.54-6.56-2-9.56-1.76-11.35,4-24.4,5.14-26.87,2.45-.59,8.26-1.64,9.35-1.84a45.32,45.32,0,0,0,8.7.94c2.25,0,5-.17,9.16-.58l2.58-.27a82.16,82.16,0,0,1,9.72-.64c.86,0,1.76,0,2.67,0h.54a28.18,28.18,0,0,0,7.79-1.45c1.31-.36,2.79-.78,4.46-1.17m.09-1.06c-5.42,1.24-8.62,2.66-12.34,2.66h-.5c-1,0-1.86,0-2.71,0a110.13,110.13,0,0,0-12.4.92c-4.08.4-6.83.58-9.06.58a45.06,45.06,0,0,1-8.71-1s-7.69,1.38-10.05,2c0,0-7.45,14.87-5.43,27.9,1.53,9.85,6.06,21.56,5.13,34.46-.8,11.07-2.36,26.73-2.36,26.73,5.86,4.78,22,7.9,38,7.9,15.58,0,31-3,36.6-10.25,0,0-.51-18-.9-36.77-.29-14-.81-26.42-1.8-33.16-2.44-16.56-10.72-20.83-13.45-21.95Z" style="fill:#e0e0e0"></path></g><g id="freepik--head--inject-14"><path d="M129.35,69.56s-3.62.24-6,4.83c-1.21,2.3-2.1,6.52,1,18.63A49,49,0,0,0,130,106.4a5.91,5.91,0,0,0,3.39,2.8l-.15-9.29L133,93.44s5.19-4.69,5.67-9.33c.63-6-1.65-9.39-1.65-9.39Z" style="fill:#37474f"></path><path d="M128.1,69.86c.94-5.22,7.53-11.38,20.13-12A23.94,23.94,0,0,1,170,69.43c3.54,6.13-1.59,11.31-1.59,11.31L136.79,78.8Z" style="fill:#37474f"></path><path d="M124.83,102.55c4.73,2.39,6.93-1.4,6.93-1.4l-.14,20.57c9,12.44,34.36,8.25,24.47-1.1V114.8a28.06,28.06,0,0,0,3.82-.39,11.15,11.15,0,0,0,9.3-8,30.8,30.8,0,0,0,1.28-7.76,67.35,67.35,0,0,0-1-13.76c-.62-3.6-.54-5.47-1.15-8.41-.47-2.25-1.41-4.71-3.43-5.74-5-2.57-9.72,1-16.78,3.74-2.92,1.12-10,1.56-11.84.66,2.43,2.77,2.33,11.43-1.31,14.92a8.27,8.27,0,0,1-1.83,2.37c-1.55,1.34-2.78-2.17-4.06-3.55a5.27,5.27,0,0,0-8.26,1.84A8.79,8.79,0,0,0,124.83,102.55Z" style="fill:#ffa8a7"></path><path d="M150.28,100.77c0-.09.07-.21.17-.2a1.43,1.43,0,0,1,.79.38,5.58,5.58,0,0,0,.64.44,5.07,5.07,0,0,0,1.47.58,5.29,5.29,0,0,0,1.73.07c.33,0,.66-.08,1-.15a3.45,3.45,0,0,1,.84-.15c.21,0,.12.38,0,.47a2.7,2.7,0,0,1-.94.48,4.79,4.79,0,0,1-1.06.24,7,7,0,0,1-2.09-.12,4.9,4.9,0,0,1-1.59-.69,3.39,3.39,0,0,1-.69-.56A.93.93,0,0,1,150.28,100.77Z" style="fill:#b16668"></path><path d="M156.09,114.8c-5.52-.09-10.7-.83-13.94-2.25s-6.09-5.91-7-10.34c0,3.56,1.46,9.89,6.37,12.55s10.94,2.73,14.55,2.85Z" style="fill:#f28f8f"></path><path d="M144.31,82.34l4.33-2.66a2.71,2.71,0,0,1-.89,3.61A2.45,2.45,0,0,1,144.31,82.34Z" style="fill:#37474f"></path><path d="M159.54,78.22,164.31,80a2.44,2.44,0,0,1-3.2,1.57A2.72,2.72,0,0,1,159.54,78.22Z" style="fill:#37474f"></path><path d="M146.57,87.66a2.16,2.16,0,1,0,2.1-2.25A2.17,2.17,0,0,0,146.57,87.66Z" style="fill:#263238"></path><path d="M161.4,86.54a2.16,2.16,0,1,0,2.1-2.25A2.16,2.16,0,0,0,161.4,86.54Z" style="fill:#263238"></path><path d="M155,84.91l1.58,13.31,7-2.53A31.11,31.11,0,0,0,155,84.91Z" style="fill:#f28f8f"></path></g><g id="freepik--Arm--inject-14"><path d="M120.72,121.42a35.11,35.11,0,0,0-10.11-1.87,11.71,11.71,0,0,0-8.56,4c-2.67,3.33-4.81,8.21-7.65,14.48L80.85,170s7.52,23.08,13.71,19.62c8.57-4.79,15.34-22.65,18.89-30.19C116.37,153.21,124.14,127.27,120.72,121.42Z" style="fill:#ffa8a7"></path><path d="M101.24,175c2.11-9.21-.5-14.37-2.74-18.7C93.74,147.05,92,143.79,92,143.79l-7.23,17Z" style="fill:#f28f8f"></path><path d="M122,120.08c-6.61-1.45-11.24-2.5-15-.78-4.54,2-7,5.78-10.64,13.42s-7,16.3-7,16.3.56,9.92,7.41,16.47c6.64,6.37,12.59,4.68,12.59,4.68l7.3-15.26C121.26,144.37,124.63,129,122,120.08Z" style="fill:#37474f"></path><path d="M65.27,123.43s.11-.66-.84-1.56-1.75-1.32-2.83-2.3-2.68-2.87-2.11-4.1,3.43,0,5.47,1.39a11.09,11.09,0,0,0,6.46,2.5c3.23.28,6.94,1.23,8.5,4.42Z" style="fill:#f28f8f"></path><path d="M56.14,127.82c-1.53-2-4-3.69-5.47-5a20.84,20.84,0,0,1-3.49-4.51c-1.09-1.75-2.76-3.7-2.57-4.4s1.5-1.2,2.7-.27c0,0-.38-1.38-.88-2.67s-1.36-2.56-.94-3.59,2.13-.44,2.87.57,1.14,1.65,1.14,1.65,1-.58,2.21,1.43a10.79,10.79,0,0,1,1.09,2.62,10.42,10.42,0,0,1,2.39,3.24,20.3,20.3,0,0,1,2.55,3.59c1.14.35,2.77.4,4.36,1.57s1.78,1.69,5,1.23c2.18-.3,5.19-1.35,7.81-1.23s5.07.68,6.29,3.86,2,5.54,3.43,8.71c1.06,2.39,1.52,2.92,7,13.64,4.25,8.32,5.1,9.56,7.06,13.81a25.05,25.05,0,0,1,2.06,16.1c-1.57,7.56-4,10.87-7.37,12-7.14,2.27-13.92-10.25-15.16-15.26s-3.55-21-4.64-27.4-2.07-10.93-3.38-11.87a42.71,42.71,0,0,0-8.46-4.22C58.74,130.29,58.54,130.74,56.14,127.82Z" style="fill:#ffa8a7"></path><path d="M79.92,123.78c1,1.16,1.3,2.67,1.9,4.06s1.12,2.8,1.72,4.18,1.19,2.77,1.82,4.14,1.71,3.14,2.37,4.49c-.53-1.41-1.54-3.21-2.11-4.6s-1.16-2.78-1.73-4.18l-1.76-4.16-.88-2.09A5.4,5.4,0,0,0,79.92,123.78Z" style="fill:#f28f8f"></path><path d="M47.31,113.63a12.06,12.06,0,0,1,1.26,1.61c.37.57.73,1.15,1,1.73l.05.09.12.06a9.19,9.19,0,0,1,.92.57,9.55,9.55,0,0,1,.84.71,6.79,6.79,0,0,1,1.31,1.75l.09.16.15,0a5.46,5.46,0,0,1,.81.22,6.07,6.07,0,0,1,.8.32,6.47,6.47,0,0,1,.78.41c.25.15.48.33.73.51a5.14,5.14,0,0,0-1.3-1.29,4.93,4.93,0,0,0-.8-.47,4.71,4.71,0,0,0-.89-.35l.24.19a6.1,6.1,0,0,0-1.38-2,6.46,6.46,0,0,0-1-.78,5.9,5.9,0,0,0-1.08-.6l.17.15A12.38,12.38,0,0,0,48.94,115,6.89,6.89,0,0,0,47.31,113.63Z" style="fill:#f28f8f"></path><path d="M49.5,109.59a6.43,6.43,0,0,1,.31,1.12,6.33,6.33,0,0,1,.09,1.14v.07L50,112a9,9,0,0,1,1.27,2.07,6.5,6.5,0,0,1,.58,2.3v.25l.23.1a6.92,6.92,0,0,1,1.17.66,11,11,0,0,1,1.08.86c.35.32.68.65,1,1s.6.74.9,1.12a8.39,8.39,0,0,0-.63-1.32,7.65,7.65,0,0,0-.86-1.19,7,7,0,0,0-1.08-1,5.86,5.86,0,0,0-1.3-.82l.24.35A5.49,5.49,0,0,0,52.4,115a7.19,7.19,0,0,0-.48-1.25,8.57,8.57,0,0,0-.7-1.13,6.93,6.93,0,0,0-.9-1l.08.16a5.14,5.14,0,0,0-.32-1.18A4.28,4.28,0,0,0,49.5,109.59Z" style="fill:#f28f8f"></path><path d="M59.54,122.48a6,6,0,0,0,2.45,1,8.53,8.53,0,0,0,2.62,0c-.44-.09-.87-.13-1.29-.19s-.85-.1-1.27-.17A18.84,18.84,0,0,1,59.54,122.48Z" style="fill:#f28f8f"></path><path d="M72,122.18A10.87,10.87,0,0,1,76,124.43a8.59,8.59,0,0,1,1.47,1.76,18.33,18.33,0,0,1,1.09,2.12,6.29,6.29,0,0,0-.56-2.4,6.19,6.19,0,0,0-1.47-2A6.33,6.33,0,0,0,72,122.18Z" style="fill:#f28f8f"></path></g></g></g></g></svg>
