<svg width="395" height="386" viewBox="0 0 395 386" fill="none" xmlns="http://www.w3.org/2000/svg">
<mask id="path-1-inside-1_109_6631" fill="white">
<path fill-rule="evenodd" clip-rule="evenodd" d="M109.071 113.132C109.071 113.387 109.094 113.637 109.138 113.88L43.728 159.999C42.6169 160.782 41.9523 162.06 41.9523 163.418V377.127H4.1962C1.87986 377.127 0 378.995 0 381.313C0 383.632 1.87986 385.505 4.1962 385.505H46.1485H188.78H390.143H390.148C392.464 385.505 394.344 383.627 394.344 381.313C394.344 379 392.464 377.127 390.148 377.127H343.994V335.223H373.363C375.68 335.223 377.554 333.346 377.554 331.032V305.889V280.746V255.607V230.465V205.321V180.178V155.04V129.897V104.754V79.6157V54.4728V29.3345C377.554 27.0208 375.68 25.1431 373.363 25.1431H339.803H310.439V4.19134C310.439 1.87768 308.559 0 306.243 0H113.267C110.946 0 109.071 1.87768 109.071 4.19134V113.132ZM306.243 33.5258C306.174 33.5258 306.105 33.5241 306.037 33.5208H251.703V50.2864H335.607V33.5208H306.449C306.411 33.5227 306.373 33.524 306.336 33.5248L306.288 33.5256L306.243 33.5258ZM302.047 8.38269V25.1431H247.511H213.947C211.631 25.1431 209.751 27.0208 209.751 29.3345V54.4728V79.6157V104.754V129.897V155.04V180.178V205.321V230.465V255.607V280.746V305.889V331.032C209.751 333.346 211.631 335.223 213.947 335.223H243.315V377.127H192.976V62.8554C192.976 61.2899 192.103 59.8531 190.709 59.1348C189.315 58.4114 187.639 58.5303 186.359 59.432L117.463 108.01V8.38269H302.047ZM276.876 335.223H310.439V377.127H276.876V335.223ZM268.488 335.223V377.127H251.703V335.223H268.488ZM272.684 326.841H251.703V310.08H335.607V326.841H314.636H272.684ZM318.832 377.127V335.223H335.607V377.127H318.832ZM369.167 326.841H343.994V310.08H369.167V326.841ZM369.167 301.698H343.994V284.937H369.167V301.698ZM251.703 284.937H335.607V301.698H251.703V284.937ZM251.703 276.554H335.607V259.794H251.703V276.554ZM369.167 276.554H343.994V259.794H369.167V276.554ZM369.167 251.421H343.994V234.656H369.167V251.421ZM251.703 234.656H335.607V251.421H251.703V234.656ZM251.703 226.273H335.607V209.513H251.703V226.273ZM369.167 226.273H343.994V209.513H369.167V226.273ZM369.167 201.13H343.994V184.37H369.167V201.13ZM251.703 184.37H335.607V201.13H251.703V184.37ZM251.703 175.992H335.607V159.226H251.703V175.992ZM369.167 175.992H343.994V159.226H369.167V175.992ZM369.167 150.849H343.994V134.089H369.167V150.849ZM251.703 134.089H335.607V150.849H251.703V134.089ZM251.703 125.711H335.607V108.945H251.703V125.711ZM369.167 125.711H343.994V108.945H369.167V125.711ZM369.167 100.563H343.994V83.8021H369.167V100.563ZM251.703 83.8021H335.607V100.563H251.703V83.8021ZM251.703 75.4293H335.607V58.6642H251.703V75.4293ZM369.167 75.4293H343.994V58.6642H369.167V75.4293ZM369.167 50.2864H343.994V33.5208H369.167V50.2864ZM243.315 326.841V310.08H218.143V326.836V326.841H243.315ZM243.315 284.937V301.698H218.143V284.937H243.315ZM243.315 259.794V276.554H218.143V259.794H243.315ZM243.315 234.656V251.421H218.143V234.656H243.315ZM243.315 209.513V226.273H218.143V209.513H243.315ZM243.315 184.37V201.13H218.143V184.37H243.315ZM243.315 159.226V175.992H218.143V159.226H243.315ZM243.315 134.089V150.849H218.143V134.089H243.315ZM243.315 108.945V125.711H218.143V108.945H243.315ZM243.315 83.8021V100.563H218.143V83.8021H243.315ZM243.315 58.6642V75.4293H218.143V58.6642H243.315ZM243.315 33.5208V50.2864H218.143V33.5208H243.315ZM184.584 377.122H50.3397V165.593L184.584 70.9409V377.122ZM29.3683 87.9986C29.3683 83.3663 25.6086 79.6159 20.9759 79.6159C16.3432 79.6159 12.5884 83.3712 12.5884 87.9986C12.5884 92.6259 16.3382 96.3763 20.9759 96.3763C25.6135 96.3763 29.3683 92.6308 29.3683 87.9986ZM71.3161 71.2331C75.9488 71.2331 79.7035 74.9835 79.7035 79.6108C79.7035 84.2382 75.9488 87.9935 71.3161 87.9935C66.6834 87.9935 62.9237 84.2431 62.9237 79.6108C62.9237 74.9786 66.6784 71.2331 71.3161 71.2331ZM29.3683 222.082C29.3683 217.454 25.6086 213.704 20.9759 213.704C16.3432 213.704 12.5884 217.449 12.5884 222.082C12.5884 226.714 16.3382 230.464 20.9759 230.464C25.6135 230.464 29.3683 226.709 29.3683 222.082ZM20.9759 247.225C25.6086 247.225 29.3683 250.975 29.3683 255.603C29.3683 260.23 25.6135 263.985 20.9759 263.985C16.3382 263.985 12.5884 260.235 12.5884 255.603C12.5884 250.97 16.3432 247.225 20.9759 247.225ZM29.3683 289.128C29.3683 284.496 25.6086 280.746 20.9759 280.746C16.3432 280.746 12.5884 284.501 12.5884 289.128C12.5884 293.756 16.3382 297.511 20.9759 297.511C25.6135 297.511 29.3683 293.761 29.3683 289.128ZM20.9759 314.267C25.6086 314.267 29.3683 318.017 29.3683 322.649C29.3683 327.282 25.6135 331.032 20.9759 331.032C16.3382 331.032 12.5884 327.277 12.5884 322.649C12.5884 318.022 16.3432 314.267 20.9759 314.267ZM71.3161 163.418H88.096V196.944H71.3161V163.418ZM113.268 163.418H96.4884V196.944H113.268V163.418ZM121.655 163.418H138.44V196.944H121.655V163.418ZM163.607 163.418H146.827V196.944H163.607V163.418ZM121.655 129.897H138.44V155.04H121.655V129.897ZM113.268 146.658H96.4884V155.035H113.268V146.658ZM146.827 121.514H163.607V155.035H146.827V121.514ZM62.9283 50.2863C51.3615 50.2863 41.9523 40.888 41.9523 29.3345C41.9523 17.7811 51.3615 8.38276 62.9283 8.38276C74.4952 8.38276 83.9044 17.7811 83.9044 29.3345C83.9044 40.888 74.4952 50.2863 62.9283 50.2863ZM62.9283 16.7605C55.9892 16.7605 50.3447 22.4035 50.3447 29.3345C50.3447 36.2656 55.9892 41.9036 62.9283 41.9036C69.8674 41.9036 75.512 36.2606 75.512 29.3345C75.512 22.4035 69.8674 16.7605 62.9283 16.7605ZM0 142.466C0 151.711 7.52936 159.226 16.7799 159.226C26.0304 159.226 33.5597 151.706 33.5597 142.466C33.5597 133.226 26.0353 125.706 16.7799 125.706C7.5244 125.706 0 133.221 0 142.466ZM8.39241 142.466C8.39241 137.849 12.1521 134.088 16.7799 134.088C21.4076 134.088 25.1723 137.844 25.1723 142.466C25.1723 147.088 21.4076 150.849 16.7799 150.849C12.1521 150.849 8.39241 147.083 8.39241 142.466Z"/>
</mask>
<path fill-rule="evenodd" clip-rule="evenodd" d="M109.071 113.132C109.071 113.387 109.094 113.637 109.138 113.88L43.728 159.999C42.6169 160.782 41.9523 162.06 41.9523 163.418V377.127H4.1962C1.87986 377.127 0 378.995 0 381.313C0 383.632 1.87986 385.505 4.1962 385.505H46.1485H188.78H390.143H390.148C392.464 385.505 394.344 383.627 394.344 381.313C394.344 379 392.464 377.127 390.148 377.127H343.994V335.223H373.363C375.68 335.223 377.554 333.346 377.554 331.032V305.889V280.746V255.607V230.465V205.321V180.178V155.04V129.897V104.754V79.6157V54.4728V29.3345C377.554 27.0208 375.68 25.1431 373.363 25.1431H339.803H310.439V4.19134C310.439 1.87768 308.559 0 306.243 0H113.267C110.946 0 109.071 1.87768 109.071 4.19134V113.132ZM306.243 33.5258C306.174 33.5258 306.105 33.5241 306.037 33.5208H251.703V50.2864H335.607V33.5208H306.449C306.411 33.5227 306.373 33.524 306.336 33.5248L306.288 33.5256L306.243 33.5258ZM302.047 8.38269V25.1431H247.511H213.947C211.631 25.1431 209.751 27.0208 209.751 29.3345V54.4728V79.6157V104.754V129.897V155.04V180.178V205.321V230.465V255.607V280.746V305.889V331.032C209.751 333.346 211.631 335.223 213.947 335.223H243.315V377.127H192.976V62.8554C192.976 61.2899 192.103 59.8531 190.709 59.1348C189.315 58.4114 187.639 58.5303 186.359 59.432L117.463 108.01V8.38269H302.047ZM276.876 335.223H310.439V377.127H276.876V335.223ZM268.488 335.223V377.127H251.703V335.223H268.488ZM272.684 326.841H251.703V310.08H335.607V326.841H314.636H272.684ZM318.832 377.127V335.223H335.607V377.127H318.832ZM369.167 326.841H343.994V310.08H369.167V326.841ZM369.167 301.698H343.994V284.937H369.167V301.698ZM251.703 284.937H335.607V301.698H251.703V284.937ZM251.703 276.554H335.607V259.794H251.703V276.554ZM369.167 276.554H343.994V259.794H369.167V276.554ZM369.167 251.421H343.994V234.656H369.167V251.421ZM251.703 234.656H335.607V251.421H251.703V234.656ZM251.703 226.273H335.607V209.513H251.703V226.273ZM369.167 226.273H343.994V209.513H369.167V226.273ZM369.167 201.13H343.994V184.37H369.167V201.13ZM251.703 184.37H335.607V201.13H251.703V184.37ZM251.703 175.992H335.607V159.226H251.703V175.992ZM369.167 175.992H343.994V159.226H369.167V175.992ZM369.167 150.849H343.994V134.089H369.167V150.849ZM251.703 134.089H335.607V150.849H251.703V134.089ZM251.703 125.711H335.607V108.945H251.703V125.711ZM369.167 125.711H343.994V108.945H369.167V125.711ZM369.167 100.563H343.994V83.8021H369.167V100.563ZM251.703 83.8021H335.607V100.563H251.703V83.8021ZM251.703 75.4293H335.607V58.6642H251.703V75.4293ZM369.167 75.4293H343.994V58.6642H369.167V75.4293ZM369.167 50.2864H343.994V33.5208H369.167V50.2864ZM243.315 326.841V310.08H218.143V326.836V326.841H243.315ZM243.315 284.937V301.698H218.143V284.937H243.315ZM243.315 259.794V276.554H218.143V259.794H243.315ZM243.315 234.656V251.421H218.143V234.656H243.315ZM243.315 209.513V226.273H218.143V209.513H243.315ZM243.315 184.37V201.13H218.143V184.37H243.315ZM243.315 159.226V175.992H218.143V159.226H243.315ZM243.315 134.089V150.849H218.143V134.089H243.315ZM243.315 108.945V125.711H218.143V108.945H243.315ZM243.315 83.8021V100.563H218.143V83.8021H243.315ZM243.315 58.6642V75.4293H218.143V58.6642H243.315ZM243.315 33.5208V50.2864H218.143V33.5208H243.315ZM184.584 377.122H50.3397V165.593L184.584 70.9409V377.122ZM29.3683 87.9986C29.3683 83.3663 25.6086 79.6159 20.9759 79.6159C16.3432 79.6159 12.5884 83.3712 12.5884 87.9986C12.5884 92.6259 16.3382 96.3763 20.9759 96.3763C25.6135 96.3763 29.3683 92.6308 29.3683 87.9986ZM71.3161 71.2331C75.9488 71.2331 79.7035 74.9835 79.7035 79.6108C79.7035 84.2382 75.9488 87.9935 71.3161 87.9935C66.6834 87.9935 62.9237 84.2431 62.9237 79.6108C62.9237 74.9786 66.6784 71.2331 71.3161 71.2331ZM29.3683 222.082C29.3683 217.454 25.6086 213.704 20.9759 213.704C16.3432 213.704 12.5884 217.449 12.5884 222.082C12.5884 226.714 16.3382 230.464 20.9759 230.464C25.6135 230.464 29.3683 226.709 29.3683 222.082ZM20.9759 247.225C25.6086 247.225 29.3683 250.975 29.3683 255.603C29.3683 260.23 25.6135 263.985 20.9759 263.985C16.3382 263.985 12.5884 260.235 12.5884 255.603C12.5884 250.97 16.3432 247.225 20.9759 247.225ZM29.3683 289.128C29.3683 284.496 25.6086 280.746 20.9759 280.746C16.3432 280.746 12.5884 284.501 12.5884 289.128C12.5884 293.756 16.3382 297.511 20.9759 297.511C25.6135 297.511 29.3683 293.761 29.3683 289.128ZM20.9759 314.267C25.6086 314.267 29.3683 318.017 29.3683 322.649C29.3683 327.282 25.6135 331.032 20.9759 331.032C16.3382 331.032 12.5884 327.277 12.5884 322.649C12.5884 318.022 16.3432 314.267 20.9759 314.267ZM71.3161 163.418H88.096V196.944H71.3161V163.418ZM113.268 163.418H96.4884V196.944H113.268V163.418ZM121.655 163.418H138.44V196.944H121.655V163.418ZM163.607 163.418H146.827V196.944H163.607V163.418ZM121.655 129.897H138.44V155.04H121.655V129.897ZM113.268 146.658H96.4884V155.035H113.268V146.658ZM146.827 121.514H163.607V155.035H146.827V121.514ZM62.9283 50.2863C51.3615 50.2863 41.9523 40.888 41.9523 29.3345C41.9523 17.7811 51.3615 8.38276 62.9283 8.38276C74.4952 8.38276 83.9044 17.7811 83.9044 29.3345C83.9044 40.888 74.4952 50.2863 62.9283 50.2863ZM62.9283 16.7605C55.9892 16.7605 50.3447 22.4035 50.3447 29.3345C50.3447 36.2656 55.9892 41.9036 62.9283 41.9036C69.8674 41.9036 75.512 36.2606 75.512 29.3345C75.512 22.4035 69.8674 16.7605 62.9283 16.7605ZM0 142.466C0 151.711 7.52936 159.226 16.7799 159.226C26.0304 159.226 33.5597 151.706 33.5597 142.466C33.5597 133.226 26.0353 125.706 16.7799 125.706C7.5244 125.706 0 133.221 0 142.466ZM8.39241 142.466C8.39241 137.849 12.1521 134.088 16.7799 134.088C21.4076 134.088 25.1723 137.844 25.1723 142.466C25.1723 147.088 21.4076 150.849 16.7799 150.849C12.1521 150.849 8.39241 147.083 8.39241 142.466Z" fill="black"/>
<path d="M109.138 113.88L110.458 115.752L111.651 114.911L111.392 113.474L109.138 113.88ZM43.728 159.999L45.0473 161.872L45.048 161.872L43.728 159.999ZM41.9523 377.127V379.418H44.243V377.127H41.9523ZM343.994 377.127H341.704V379.418H343.994V377.127ZM343.994 335.223V332.933H341.704V335.223H343.994ZM310.439 25.1431H308.148V27.4338H310.439V25.1431ZM306.037 33.5208L306.148 31.2328L306.093 31.2301H306.037V33.5208ZM306.243 33.5258V35.8166L306.255 35.8165L306.243 33.5258ZM251.703 33.5208V31.2301H249.412V33.5208H251.703ZM251.703 50.2864H249.412V52.5772H251.703V50.2864ZM335.607 50.2864V52.5772H337.898V50.2864H335.607ZM335.607 33.5208H337.898V31.2301H335.607V33.5208ZM306.449 33.5208V31.2301H306.393L306.338 31.2328L306.449 33.5208ZM306.336 33.5248L306.372 35.8153L306.385 35.815L306.336 33.5248ZM306.288 33.5256L306.301 35.8162L306.313 35.8162L306.325 35.816L306.288 33.5256ZM302.047 25.1431V27.4338H304.338V25.1431H302.047ZM302.047 8.38269H304.338V6.09196H302.047V8.38269ZM243.315 335.223H245.606V332.933H243.315V335.223ZM243.315 377.127V379.418H245.606V377.127H243.315ZM192.976 377.127H190.685V379.418H192.976V377.127ZM190.709 59.1348L189.654 61.168L189.66 61.1709L190.709 59.1348ZM186.359 59.432L185.04 57.5594L185.039 57.5599L186.359 59.432ZM117.463 108.01H115.173V112.428L118.783 109.882L117.463 108.01ZM117.463 8.38269V6.09196H115.173V8.38269H117.463ZM310.439 335.223H312.73V332.933H310.439V335.223ZM276.876 335.223V332.933H274.585V335.223H276.876ZM310.439 377.127V379.418H312.73V377.127H310.439ZM276.876 377.127H274.585V379.418H276.876V377.127ZM268.488 377.127V379.418H270.779V377.127H268.488ZM268.488 335.223H270.779V332.933H268.488V335.223ZM251.703 377.127H249.412V379.418H251.703V377.127ZM251.703 335.223V332.933H249.412V335.223H251.703ZM251.703 326.841H249.412V329.131H251.703V326.841ZM251.703 310.08V307.789H249.412V310.08H251.703ZM335.607 310.08H337.898V307.789H335.607V310.08ZM335.607 326.841V329.131H337.898V326.841H335.607ZM318.832 335.223V332.933H316.541V335.223H318.832ZM318.832 377.127H316.541V379.418H318.832V377.127ZM335.607 335.223H337.898V332.933H335.607V335.223ZM335.607 377.127V379.418H337.898V377.127H335.607ZM343.994 326.841H341.704V329.131H343.994V326.841ZM369.167 326.841V329.131H371.458V326.841H369.167ZM343.994 310.08V307.789H341.704V310.08H343.994ZM369.167 310.08H371.458V307.789H369.167V310.08ZM343.994 301.698H341.704V303.988H343.994V301.698ZM369.167 301.698V303.988H371.458V301.698H369.167ZM343.994 284.937V282.646H341.704V284.937H343.994ZM369.167 284.937H371.458V282.646H369.167V284.937ZM335.607 284.937H337.898V282.646H335.607V284.937ZM251.703 284.937V282.646H249.412V284.937H251.703ZM335.607 301.698V303.988H337.898V301.698H335.607ZM251.703 301.698H249.412V303.988H251.703V301.698ZM335.607 276.554V278.845H337.898V276.554H335.607ZM251.703 276.554H249.412V278.845H251.703V276.554ZM335.607 259.794H337.898V257.503H335.607V259.794ZM251.703 259.794V257.503H249.412V259.794H251.703ZM343.994 276.554H341.704V278.845H343.994V276.554ZM369.167 276.554V278.845H371.458V276.554H369.167ZM343.994 259.794V257.503H341.704V259.794H343.994ZM369.167 259.794H371.458V257.503H369.167V259.794ZM343.994 251.421H341.704V253.712H343.994V251.421ZM369.167 251.421V253.712H371.458V251.421H369.167ZM343.994 234.656V232.365H341.704V234.656H343.994ZM369.167 234.656H371.458V232.365H369.167V234.656ZM335.607 234.656H337.898V232.365H335.607V234.656ZM251.703 234.656V232.365H249.412V234.656H251.703ZM335.607 251.421V253.712H337.898V251.421H335.607ZM251.703 251.421H249.412V253.712H251.703V251.421ZM335.607 226.273V228.564H337.898V226.273H335.607ZM251.703 226.273H249.412V228.564H251.703V226.273ZM335.607 209.513H337.898V207.222H335.607V209.513ZM251.703 209.513V207.222H249.412V209.513H251.703ZM343.994 226.273H341.704V228.564H343.994V226.273ZM369.167 226.273V228.564H371.458V226.273H369.167ZM343.994 209.513V207.222H341.704V209.513H343.994ZM369.167 209.513H371.458V207.222H369.167V209.513ZM343.994 201.13H341.704V203.421H343.994V201.13ZM369.167 201.13V203.421H371.458V201.13H369.167ZM343.994 184.37V182.079H341.704V184.37H343.994ZM369.167 184.37H371.458V182.079H369.167V184.37ZM335.607 184.37H337.898V182.079H335.607V184.37ZM251.703 184.37V182.079H249.412V184.37H251.703ZM335.607 201.13V203.421H337.898V201.13H335.607ZM251.703 201.13H249.412V203.421H251.703V201.13ZM335.607 175.992V178.283H337.898V175.992H335.607ZM251.703 175.992H249.412V178.283H251.703V175.992ZM335.607 159.226H337.898V156.936H335.607V159.226ZM251.703 159.226V156.936H249.412V159.226H251.703ZM343.994 175.992H341.704V178.283H343.994V175.992ZM369.167 175.992V178.283H371.458V175.992H369.167ZM343.994 159.226V156.936H341.704V159.226H343.994ZM369.167 159.226H371.458V156.936H369.167V159.226ZM343.994 150.849H341.704V153.139H343.994V150.849ZM369.167 150.849V153.139H371.458V150.849H369.167ZM343.994 134.089V131.798H341.704V134.089H343.994ZM369.167 134.089H371.458V131.798H369.167V134.089ZM335.607 134.089H337.898V131.798H335.607V134.089ZM251.703 134.089V131.798H249.412V134.089H251.703ZM335.607 150.849V153.139H337.898V150.849H335.607ZM251.703 150.849H249.412V153.139H251.703V150.849ZM335.607 125.711V128.002H337.898V125.711H335.607ZM251.703 125.711H249.412V128.002H251.703V125.711ZM335.607 108.945H337.898V106.655H335.607V108.945ZM251.703 108.945V106.655H249.412V108.945H251.703ZM343.994 125.711H341.704V128.002H343.994V125.711ZM369.167 125.711V128.002H371.458V125.711H369.167ZM343.994 108.945V106.655H341.704V108.945H343.994ZM369.167 108.945H371.458V106.655H369.167V108.945ZM343.994 100.563H341.704V102.853H343.994V100.563ZM369.167 100.563V102.853H371.458V100.563H369.167ZM343.994 83.8021V81.5114H341.704V83.8021H343.994ZM369.167 83.8021H371.458V81.5114H369.167V83.8021ZM335.607 83.8021H337.898V81.5114H335.607V83.8021ZM251.703 83.8021V81.5114H249.412V83.8021H251.703ZM335.607 100.563V102.853H337.898V100.563H335.607ZM251.703 100.563H249.412V102.853H251.703V100.563ZM335.607 75.4293V77.72H337.898V75.4293H335.607ZM251.703 75.4293H249.412V77.72H251.703V75.4293ZM335.607 58.6642H337.898V56.3735H335.607V58.6642ZM251.703 58.6642V56.3735H249.412V58.6642H251.703ZM343.994 75.4293H341.704V77.72H343.994V75.4293ZM369.167 75.4293V77.72H371.458V75.4293H369.167ZM343.994 58.6642V56.3735H341.704V58.6642H343.994ZM369.167 58.6642H371.458V56.3735H369.167V58.6642ZM343.994 50.2864H341.704V52.5772H343.994V50.2864ZM369.167 50.2864V52.5772H371.458V50.2864H369.167ZM343.994 33.5208V31.2301H341.704V33.5208H343.994ZM369.167 33.5208H371.458V31.2301H369.167V33.5208ZM243.315 310.08H245.606V307.789H243.315V310.08ZM243.315 326.841V329.131H245.606V326.841H243.315ZM218.143 310.08V307.789H215.853V310.08H218.143ZM218.143 326.841H215.853V329.131H218.143V326.841ZM243.315 301.698V303.988H245.606V301.698H243.315ZM243.315 284.937H245.606V282.646H243.315V284.937ZM218.143 301.698H215.853V303.988H218.143V301.698ZM218.143 284.937V282.646H215.853V284.937H218.143ZM243.315 276.554V278.845H245.606V276.554H243.315ZM243.315 259.794H245.606V257.503H243.315V259.794ZM218.143 276.554H215.853V278.845H218.143V276.554ZM218.143 259.794V257.503H215.853V259.794H218.143ZM243.315 251.421V253.712H245.606V251.421H243.315ZM243.315 234.656H245.606V232.365H243.315V234.656ZM218.143 251.421H215.853V253.712H218.143V251.421ZM218.143 234.656V232.365H215.853V234.656H218.143ZM243.315 226.273V228.564H245.606V226.273H243.315ZM243.315 209.513H245.606V207.222H243.315V209.513ZM218.143 226.273H215.853V228.564H218.143V226.273ZM218.143 209.513V207.222H215.853V209.513H218.143ZM243.315 201.13V203.421H245.606V201.13H243.315ZM243.315 184.37H245.606V182.079H243.315V184.37ZM218.143 201.13H215.853V203.421H218.143V201.13ZM218.143 184.37V182.079H215.853V184.37H218.143ZM243.315 175.992V178.283H245.606V175.992H243.315ZM243.315 159.226H245.606V156.936H243.315V159.226ZM218.143 175.992H215.853V178.283H218.143V175.992ZM218.143 159.226V156.936H215.853V159.226H218.143ZM243.315 150.849V153.139H245.606V150.849H243.315ZM243.315 134.089H245.606V131.798H243.315V134.089ZM218.143 150.849H215.853V153.139H218.143V150.849ZM218.143 134.089V131.798H215.853V134.089H218.143ZM243.315 125.711V128.002H245.606V125.711H243.315ZM243.315 108.945H245.606V106.655H243.315V108.945ZM218.143 125.711H215.853V128.002H218.143V125.711ZM218.143 108.945V106.655H215.853V108.945H218.143ZM243.315 100.563V102.853H245.606V100.563H243.315ZM243.315 83.8021H245.606V81.5114H243.315V83.8021ZM218.143 100.563H215.853V102.853H218.143V100.563ZM218.143 83.8021V81.5114H215.853V83.8021H218.143ZM243.315 75.4293V77.72H245.606V75.4293H243.315ZM243.315 58.6642H245.606V56.3735H243.315V58.6642ZM218.143 75.4293H215.853V77.72H218.143V75.4293ZM218.143 58.6642V56.3735H215.853V58.6642H218.143ZM243.315 50.2864V52.5772H245.606V50.2864H243.315ZM243.315 33.5208H245.606V31.2301H243.315V33.5208ZM218.143 50.2864H215.853V52.5772H218.143V50.2864ZM218.143 33.5208V31.2301H215.853V33.5208H218.143ZM50.3397 377.122H48.049V379.413H50.3397V377.122ZM184.584 377.122V379.413H186.874V377.122H184.584ZM50.3397 165.593L49.0197 163.721L48.049 164.405V165.593H50.3397ZM184.584 70.9409H186.874V66.5229L183.264 69.0687L184.584 70.9409ZM88.096 163.418H90.3867V161.127H88.096V163.418ZM71.3161 163.418V161.127H69.0254V163.418H71.3161ZM88.096 196.944V199.234H90.3867V196.944H88.096ZM71.3161 196.944H69.0254V199.234H71.3161V196.944ZM96.4884 163.418V161.127H94.1977V163.418H96.4884ZM113.268 163.418H115.559V161.127H113.268V163.418ZM96.4884 196.944H94.1977V199.234H96.4884V196.944ZM113.268 196.944V199.234H115.559V196.944H113.268ZM138.44 163.418H140.731V161.127H138.44V163.418ZM121.655 163.418V161.127H119.365V163.418H121.655ZM138.44 196.944V199.234H140.731V196.944H138.44ZM121.655 196.944H119.365V199.234H121.655V196.944ZM146.827 163.418V161.127H144.536V163.418H146.827ZM163.607 163.418H165.897V161.127H163.607V163.418ZM146.827 196.944H144.536V199.234H146.827V196.944ZM163.607 196.944V199.234H165.897V196.944H163.607ZM138.44 129.897H140.731V127.607H138.44V129.897ZM121.655 129.897V127.607H119.365V129.897H121.655ZM138.44 155.04V157.331H140.731V155.04H138.44ZM121.655 155.04H119.365V157.331H121.655V155.04ZM96.4884 146.658V144.367H94.1977V146.658H96.4884ZM113.268 146.658H115.559V144.367H113.268V146.658ZM96.4884 155.035H94.1977V157.326H96.4884V155.035ZM113.268 155.035V157.326H115.559V155.035H113.268ZM163.607 121.514H165.897V119.223H163.607V121.514ZM146.827 121.514V119.223H144.536V121.514H146.827ZM163.607 155.035V157.326H165.897V155.035H163.607ZM146.827 155.035H144.536V157.326H146.827V155.035ZM111.392 113.474C111.372 113.365 111.362 113.25 111.362 113.132H106.78C106.78 113.524 106.815 113.91 106.883 114.286L111.392 113.474ZM45.048 161.872L110.458 115.752L107.818 112.008L42.4079 158.127L45.048 161.872ZM44.243 163.418C44.243 162.808 44.5434 162.227 45.0473 161.872L42.4086 158.127C40.6904 159.337 39.6615 161.313 39.6615 163.418H44.243ZM44.243 377.127V163.418H39.6615V377.127H44.243ZM4.1962 379.418H41.9523V374.836H4.1962V379.418ZM2.29073 381.313C2.29073 380.268 3.13717 379.418 4.1962 379.418V374.836C0.622552 374.836 -2.29073 377.722 -2.29073 381.313H2.29073ZM4.1962 383.214C3.14073 383.214 2.29073 382.363 2.29073 381.313H-2.29073C-2.29073 384.901 0.61899 387.795 4.1962 387.795V383.214ZM46.1485 383.214H4.1962V387.795H46.1485V383.214ZM188.78 383.214H46.1485V387.795H188.78V383.214ZM390.143 383.214H188.78V387.795H390.143V383.214ZM390.148 383.214H390.143V387.795H390.148V383.214ZM392.053 381.313C392.053 382.359 391.202 383.214 390.148 383.214V387.795C393.727 387.795 396.635 384.895 396.635 381.313H392.053ZM390.148 379.418C391.205 379.418 392.053 380.271 392.053 381.313H396.635C396.635 377.728 393.723 374.836 390.148 374.836V379.418ZM343.994 379.418H390.148V374.836H343.994V379.418ZM341.704 335.223V377.127H346.285V335.223H341.704ZM373.363 332.933H343.994V337.514H373.363V332.933ZM375.264 331.032C375.264 332.081 374.413 332.933 373.363 332.933V337.514C376.946 337.514 379.845 334.61 379.845 331.032H375.264ZM375.264 305.889V331.032H379.845V305.889H375.264ZM375.264 280.746V305.889H379.845V280.746H375.264ZM375.264 255.607V280.746H379.845V255.607H375.264ZM375.264 230.465V255.607H379.845V230.465H375.264ZM375.264 205.321V230.465H379.845V205.321H375.264ZM375.264 180.178V205.321H379.845V180.178H375.264ZM375.264 155.04V180.178H379.845V155.04H375.264ZM375.264 129.897V155.04H379.845V129.897H375.264ZM375.264 104.754V129.897H379.845V104.754H375.264ZM375.264 79.6157V104.754H379.845V79.6157H375.264ZM375.264 54.4728V79.6157H379.845V54.4728H375.264ZM375.264 29.3345V54.4728H379.845V29.3345H375.264ZM373.363 27.4338C374.413 27.4338 375.264 28.2849 375.264 29.3345H379.845C379.845 25.7567 376.946 22.8524 373.363 22.8524V27.4338ZM339.803 27.4338H373.363V22.8524H339.803V27.4338ZM310.439 27.4338H339.803V22.8524H310.439V27.4338ZM308.148 4.19134V25.1431H312.73V4.19134H308.148ZM306.243 2.29073C307.297 2.29073 308.148 3.14533 308.148 4.19134H312.73C312.73 0.61003 309.822 -2.29073 306.243 -2.29073V2.29073ZM113.267 2.29073H306.243V-2.29073H113.267V2.29073ZM111.362 4.19134C111.362 3.14356 112.21 2.29073 113.267 2.29073V-2.29073C109.682 -2.29073 106.78 0.611809 106.78 4.19134H111.362ZM111.362 113.132V4.19134H106.78V113.132H111.362ZM305.927 35.8089C306.032 35.814 306.137 35.8165 306.243 35.8165V31.2351C306.211 31.2351 306.179 31.2343 306.148 31.2328L305.927 35.8089ZM251.703 35.8116H306.037V31.2301H251.703V35.8116ZM253.993 50.2864V33.5208H249.412V50.2864H253.993ZM335.607 47.9957H251.703V52.5772H335.607V47.9957ZM333.316 33.5208V50.2864H337.898V33.5208H333.316ZM306.449 35.8116H335.607V31.2301H306.449V35.8116ZM306.385 35.815C306.443 35.8137 306.501 35.8117 306.559 35.8089L306.338 31.2328C306.321 31.2336 306.303 31.2342 306.286 31.2346L306.385 35.815ZM306.325 35.816L306.372 35.8152L306.299 31.2344L306.252 31.2351L306.325 35.816ZM306.255 35.8165L306.301 35.8162L306.276 31.2349L306.231 31.2351L306.255 35.8165ZM304.338 25.1431V8.38269H299.756V25.1431H304.338ZM247.511 27.4338H302.047V22.8524H247.511V27.4338ZM213.947 27.4338H247.511V22.8524H213.947V27.4338ZM212.042 29.3345C212.042 28.2884 212.893 27.4338 213.947 27.4338V22.8524C210.368 22.8524 207.46 25.7532 207.46 29.3345H212.042ZM212.042 54.4728V29.3345H207.46V54.4728H212.042ZM212.042 79.6157V54.4728H207.46V79.6157H212.042ZM212.042 104.754V79.6157H207.46V104.754H212.042ZM212.042 129.897V104.754H207.46V129.897H212.042ZM212.042 155.04V129.897H207.46V155.04H212.042ZM212.042 180.178V155.04H207.46V180.178H212.042ZM212.042 205.321V180.178H207.46V205.321H212.042ZM212.042 230.465V205.321H207.46V230.465H212.042ZM212.042 255.607V230.465H207.46V255.607H212.042ZM212.042 280.746V255.607H207.46V280.746H212.042ZM212.042 305.889V280.746H207.46V305.889H212.042ZM212.042 331.032V305.889H207.46V331.032H212.042ZM213.947 332.933C212.893 332.933 212.042 332.078 212.042 331.032H207.46C207.46 334.613 210.368 337.514 213.947 337.514V332.933ZM243.315 332.933H213.947V337.514H243.315V332.933ZM245.606 377.127V335.223H241.025V377.127H245.606ZM192.976 379.418H243.315V374.836H192.976V379.418ZM190.685 62.8554V377.127H195.267V62.8554H190.685ZM189.66 61.1709C190.289 61.4954 190.685 62.1453 190.685 62.8554H195.267C195.267 60.4345 193.917 58.2108 191.759 57.0986L189.66 61.1709ZM187.679 61.3046C188.263 60.8928 189.024 60.8411 189.654 61.168L191.764 57.1015C189.607 55.9818 187.015 56.1678 185.04 57.5594L187.679 61.3046ZM118.783 109.882L187.679 61.3042L185.039 57.5599L116.143 106.137L118.783 109.882ZM115.173 8.38269V108.01H119.754V8.38269H115.173ZM302.047 6.09196H117.463V10.6734H302.047V6.09196ZM310.439 332.933H276.876V337.514H310.439V332.933ZM312.73 377.127V335.223H308.149V377.127H312.73ZM276.876 379.418H310.439V374.836H276.876V379.418ZM274.585 335.223V377.127H279.166V335.223H274.585ZM270.779 377.127V335.223H266.197V377.127H270.779ZM251.703 379.418H268.488V374.836H251.703V379.418ZM249.412 335.223V377.127H253.993V335.223H249.412ZM268.488 332.933H251.703V337.514H268.488V332.933ZM251.703 329.131H272.684V324.55H251.703V329.131ZM249.412 310.08V326.841H253.993V310.08H249.412ZM335.607 307.789H251.703V312.371H335.607V307.789ZM337.898 326.841V310.08H333.316V326.841H337.898ZM314.636 329.131H335.607V324.55H314.636V329.131ZM272.684 329.131H314.636V324.55H272.684V329.131ZM316.541 335.223V377.127H321.123V335.223H316.541ZM335.607 332.933H318.832V337.514H335.607V332.933ZM337.898 377.127V335.223H333.316V377.127H337.898ZM318.832 379.418H335.607V374.836H318.832V379.418ZM343.994 329.131H369.167V324.55H343.994V329.131ZM341.704 310.08V326.841H346.285V310.08H341.704ZM369.167 307.789H343.994V312.371H369.167V307.789ZM371.458 326.841V310.08H366.876V326.841H371.458ZM343.994 303.988H369.167V299.407H343.994V303.988ZM341.704 284.937V301.698H346.285V284.937H341.704ZM369.167 282.646H343.994V287.228H369.167V282.646ZM371.458 301.698V284.937H366.876V301.698H371.458ZM335.607 282.646H251.703V287.228H335.607V282.646ZM337.898 301.698V284.937H333.316V301.698H337.898ZM251.703 303.988H335.607V299.407H251.703V303.988ZM249.412 284.937V301.698H253.993V284.937H249.412ZM335.607 274.264H251.703V278.845H335.607V274.264ZM333.316 259.794V276.554H337.898V259.794H333.316ZM251.703 262.084H335.607V257.503H251.703V262.084ZM253.993 276.554V259.794H249.412V276.554H253.993ZM343.994 278.845H369.167V274.264H343.994V278.845ZM341.704 259.794V276.554H346.285V259.794H341.704ZM369.167 257.503H343.994V262.084H369.167V257.503ZM371.458 276.554V259.794H366.876V276.554H371.458ZM343.994 253.712H369.167V249.13H343.994V253.712ZM341.704 234.656V251.421H346.285V234.656H341.704ZM369.167 232.365H343.994V236.947H369.167V232.365ZM371.458 251.421V234.656H366.876V251.421H371.458ZM335.607 232.365H251.703V236.947H335.607V232.365ZM337.898 251.421V234.656H333.316V251.421H337.898ZM251.703 253.712H335.607V249.13H251.703V253.712ZM249.412 234.656V251.421H253.993V234.656H249.412ZM335.607 223.983H251.703V228.564H335.607V223.983ZM333.316 209.513V226.273H337.898V209.513H333.316ZM251.703 211.803H335.607V207.222H251.703V211.803ZM253.993 226.273V209.513H249.412V226.273H253.993ZM343.994 228.564H369.167V223.983H343.994V228.564ZM341.704 209.513V226.273H346.285V209.513H341.704ZM369.167 207.222H343.994V211.803H369.167V207.222ZM371.458 226.273V209.513H366.876V226.273H371.458ZM343.994 203.421H369.167V198.839H343.994V203.421ZM341.704 184.37V201.13H346.285V184.37H341.704ZM369.167 182.079H343.994V186.66H369.167V182.079ZM371.458 201.13V184.37H366.876V201.13H371.458ZM335.607 182.079H251.703V186.66H335.607V182.079ZM337.898 201.13V184.37H333.316V201.13H337.898ZM251.703 203.421H335.607V198.839H251.703V203.421ZM249.412 184.37V201.13H253.993V184.37H249.412ZM335.607 173.701H251.703V178.283H335.607V173.701ZM333.316 159.226V175.992H337.898V159.226H333.316ZM251.703 161.517H335.607V156.936H251.703V161.517ZM253.993 175.992V159.226H249.412V175.992H253.993ZM343.994 178.283H369.167V173.701H343.994V178.283ZM341.704 159.226V175.992H346.285V159.226H341.704ZM369.167 156.936H343.994V161.517H369.167V156.936ZM371.458 175.992V159.226H366.876V175.992H371.458ZM343.994 153.139H369.167V148.558H343.994V153.139ZM341.704 134.089V150.849H346.285V134.089H341.704ZM369.167 131.798H343.994V136.379H369.167V131.798ZM371.458 150.849V134.089H366.876V150.849H371.458ZM335.607 131.798H251.703V136.379H335.607V131.798ZM337.898 150.849V134.089H333.316V150.849H337.898ZM251.703 153.139H335.607V148.558H251.703V153.139ZM249.412 134.089V150.849H253.993V134.089H249.412ZM335.607 123.42H251.703V128.002H335.607V123.42ZM333.316 108.945V125.711H337.898V108.945H333.316ZM251.703 111.236H335.607V106.655H251.703V111.236ZM253.993 125.711V108.945H249.412V125.711H253.993ZM343.994 128.002H369.167V123.42H343.994V128.002ZM341.704 108.945V125.711H346.285V108.945H341.704ZM369.167 106.655H343.994V111.236H369.167V106.655ZM371.458 125.711V108.945H366.876V125.711H371.458ZM343.994 102.853H369.167V98.2718H343.994V102.853ZM341.704 83.8021V100.563H346.285V83.8021H341.704ZM369.167 81.5114H343.994V86.0928H369.167V81.5114ZM371.458 100.563V83.8021H366.876V100.563H371.458ZM335.607 81.5114H251.703V86.0928H335.607V81.5114ZM337.898 100.563V83.8021H333.316V100.563H337.898ZM251.703 102.853H335.607V98.2718H251.703V102.853ZM249.412 83.8021V100.563H253.993V83.8021H249.412ZM335.607 73.1386H251.703V77.72H335.607V73.1386ZM333.316 58.6642V75.4293H337.898V58.6642H333.316ZM251.703 60.9549H335.607V56.3735H251.703V60.9549ZM253.993 75.4293V58.6642H249.412V75.4293H253.993ZM343.994 77.72H369.167V73.1386H343.994V77.72ZM341.704 58.6642V75.4293H346.285V58.6642H341.704ZM369.167 56.3735H343.994V60.9549H369.167V56.3735ZM371.458 75.4293V58.6642H366.876V75.4293H371.458ZM343.994 52.5772H369.167V47.9957H343.994V52.5772ZM341.704 33.5208V50.2864H346.285V33.5208H341.704ZM369.167 31.2301H343.994V35.8116H369.167V31.2301ZM371.458 50.2864V33.5208H366.876V50.2864H371.458ZM241.025 310.08V326.841H245.606V310.08H241.025ZM218.143 312.371H243.315V307.789H218.143V312.371ZM220.434 326.836V310.08H215.853V326.836H220.434ZM220.434 326.841V326.836H215.853V326.841H220.434ZM243.315 324.55H218.143V329.131H243.315V324.55ZM245.606 301.698V284.937H241.025V301.698H245.606ZM218.143 303.988H243.315V299.407H218.143V303.988ZM215.853 284.937V301.698H220.434V284.937H215.853ZM243.315 282.646H218.143V287.228H243.315V282.646ZM245.606 276.554V259.794H241.025V276.554H245.606ZM218.143 278.845H243.315V274.264H218.143V278.845ZM215.853 259.794V276.554H220.434V259.794H215.853ZM243.315 257.503H218.143V262.084H243.315V257.503ZM245.606 251.421V234.656H241.025V251.421H245.606ZM218.143 253.712H243.315V249.13H218.143V253.712ZM215.853 234.656V251.421H220.434V234.656H215.853ZM243.315 232.365H218.143V236.947H243.315V232.365ZM245.606 226.273V209.513H241.025V226.273H245.606ZM218.143 228.564H243.315V223.983H218.143V228.564ZM215.853 209.513V226.273H220.434V209.513H215.853ZM243.315 207.222H218.143V211.803H243.315V207.222ZM245.606 201.13V184.37H241.025V201.13H245.606ZM218.143 203.421H243.315V198.839H218.143V203.421ZM215.853 184.37V201.13H220.434V184.37H215.853ZM243.315 182.079H218.143V186.66H243.315V182.079ZM245.606 175.992V159.226H241.025V175.992H245.606ZM218.143 178.283H243.315V173.701H218.143V178.283ZM215.853 159.226V175.992H220.434V159.226H215.853ZM243.315 156.936H218.143V161.517H243.315V156.936ZM245.606 150.849V134.089H241.025V150.849H245.606ZM218.143 153.139H243.315V148.558H218.143V153.139ZM215.853 134.089V150.849H220.434V134.089H215.853ZM243.315 131.798H218.143V136.379H243.315V131.798ZM245.606 125.711V108.945H241.025V125.711H245.606ZM218.143 128.002H243.315V123.42H218.143V128.002ZM215.853 108.945V125.711H220.434V108.945H215.853ZM243.315 106.655H218.143V111.236H243.315V106.655ZM245.606 100.563V83.8021H241.025V100.563H245.606ZM218.143 102.853H243.315V98.2718H218.143V102.853ZM215.853 83.8021V100.563H220.434V83.8021H215.853ZM243.315 81.5114H218.143V86.0928H243.315V81.5114ZM245.606 75.4293V58.6642H241.025V75.4293H245.606ZM218.143 77.72H243.315V73.1386H218.143V77.72ZM215.853 58.6642V75.4293H220.434V58.6642H215.853ZM243.315 56.3735H218.143V60.9549H243.315V56.3735ZM245.606 50.2864V33.5208H241.025V50.2864H245.606ZM218.143 52.5772H243.315V47.9957H218.143V52.5772ZM215.853 33.5208V50.2864H220.434V33.5208H215.853ZM243.315 31.2301H218.143V35.8116H243.315V31.2301ZM50.3397 379.413H184.584V374.831H50.3397V379.413ZM48.049 165.593V377.122H52.6304V165.593H48.049ZM183.264 69.0687L49.0197 163.721L51.6597 167.465L185.904 72.813L183.264 69.0687ZM186.874 377.122V70.9409H182.293V377.122H186.874ZM20.9759 81.9066C24.3468 81.9066 27.0776 84.6348 27.0776 87.9986H31.659C31.659 82.0978 26.8703 77.3251 20.9759 77.3251V81.9066ZM14.8791 87.9986C14.8791 84.6371 17.6076 81.9066 20.9759 81.9066V77.3251C15.0788 77.3251 10.2977 82.1054 10.2977 87.9986H14.8791ZM20.9759 94.0856C17.6017 94.0856 14.8791 91.3591 14.8791 87.9986H10.2977C10.2977 93.8926 15.0747 98.667 20.9759 98.667V94.0856ZM27.0776 87.9986C27.0776 91.3614 24.3527 94.0856 20.9759 94.0856V98.667C26.8744 98.667 31.659 93.9002 31.659 87.9986H27.0776ZM81.9942 79.6108C81.9942 73.7159 77.2114 68.9424 71.3161 68.9424V73.5238C74.6861 73.5238 77.4128 76.2512 77.4128 79.6108H81.9942ZM71.3161 90.2843C77.2132 90.2843 81.9942 85.504 81.9942 79.6108H77.4128C77.4128 82.9723 74.6844 85.7028 71.3161 85.7028V90.2843ZM60.6329 79.6108C60.6329 85.5116 65.4216 90.2843 71.3161 90.2843V85.7028C67.9451 85.7028 65.2144 82.9746 65.2144 79.6108H60.6329ZM71.3161 68.9424C65.4176 68.9424 60.6329 73.7092 60.6329 79.6108H65.2144C65.2144 76.248 67.9393 73.5238 71.3161 73.5238V68.9424ZM20.9759 215.995C24.3477 215.995 27.0776 218.724 27.0776 222.082H31.659C31.659 216.185 26.8694 211.413 20.9759 211.413V215.995ZM14.8791 222.082C14.8791 218.718 17.6049 215.995 20.9759 215.995V211.413C15.0814 211.413 10.2977 216.181 10.2977 222.082H14.8791ZM20.9759 228.174C17.6026 228.174 14.8791 225.448 14.8791 222.082H10.2977C10.2977 227.98 15.0738 232.755 20.9759 232.755V228.174ZM27.0776 222.082C27.0776 225.442 24.35 228.174 20.9759 228.174V232.755C26.877 232.755 31.659 227.976 31.659 222.082H27.0776ZM31.659 255.603C31.659 249.706 26.8694 244.934 20.9759 244.934V249.516C24.3477 249.516 27.0776 252.245 27.0776 255.603H31.659ZM20.9759 266.276C26.877 266.276 31.659 261.497 31.659 255.603H27.0776C27.0776 258.963 24.35 261.695 20.9759 261.695V266.276ZM10.2977 255.603C10.2977 261.501 15.0738 266.276 20.9759 266.276V261.695C17.6026 261.695 14.8791 258.969 14.8791 255.603H10.2977ZM20.9759 244.934C15.0814 244.934 10.2977 249.702 10.2977 255.603H14.8791C14.8791 252.239 17.6049 249.516 20.9759 249.516V244.934ZM20.9759 283.036C24.3468 283.036 27.0776 285.765 27.0776 289.128H31.659C31.659 283.228 26.8703 278.455 20.9759 278.455V283.036ZM14.8791 289.128C14.8791 285.767 17.6076 283.036 20.9759 283.036V278.455C15.0788 278.455 10.2977 283.235 10.2977 289.128H14.8791ZM20.9759 295.22C17.6035 295.22 14.8791 292.491 14.8791 289.128H10.2977C10.2977 295.021 15.073 299.802 20.9759 299.802V295.22ZM27.0776 289.128C27.0776 292.493 24.3509 295.22 20.9759 295.22V299.802C26.8761 299.802 31.659 295.028 31.659 289.128H27.0776ZM31.659 322.649C31.659 316.748 26.8703 311.976 20.9759 311.976V316.557C24.3468 316.557 27.0776 319.285 27.0776 322.649H31.659ZM20.9759 333.323C26.8761 333.323 31.659 328.549 31.659 322.649H27.0776C27.0776 326.014 24.3509 328.741 20.9759 328.741V333.323ZM10.2977 322.649C10.2977 328.542 15.073 333.323 20.9759 333.323V328.741C17.6035 328.741 14.8791 326.012 14.8791 322.649H10.2977ZM20.9759 311.976C15.0788 311.976 10.2977 316.756 10.2977 322.649H14.8791C14.8791 319.288 17.6076 316.557 20.9759 316.557V311.976ZM88.096 161.127H71.3161V165.709H88.096V161.127ZM90.3867 196.944V163.418H85.8052V196.944H90.3867ZM71.3161 199.234H88.096V194.653H71.3161V199.234ZM69.0254 163.418V196.944H73.6068V163.418H69.0254ZM96.4884 165.709H113.268V161.127H96.4884V165.709ZM98.7792 196.944V163.418H94.1977V196.944H98.7792ZM113.268 194.653H96.4884V199.234H113.268V194.653ZM110.978 163.418V196.944H115.559V163.418H110.978ZM138.44 161.127H121.655V165.709H138.44V161.127ZM140.731 196.944V163.418H136.149V196.944H140.731ZM121.655 199.234H138.44V194.653H121.655V199.234ZM119.365 163.418V196.944H123.946V163.418H119.365ZM146.827 165.709H163.607V161.127H146.827V165.709ZM149.118 196.944V163.418H144.536V196.944H149.118ZM163.607 194.653H146.827V199.234H163.607V194.653ZM161.316 163.418V196.944H165.897V163.418H161.316ZM138.44 127.607H121.655V132.188H138.44V127.607ZM140.731 155.04V129.897H136.149V155.04H140.731ZM121.655 157.331H138.44V152.75H121.655V157.331ZM119.365 129.897V155.04H123.946V129.897H119.365ZM96.4884 148.948H113.268V144.367H96.4884V148.948ZM98.7792 155.035V146.658H94.1977V155.035H98.7792ZM113.268 152.745H96.4884V157.326H113.268V152.745ZM110.978 146.658V155.035H115.559V146.658H110.978ZM163.607 119.223H146.827V123.805H163.607V119.223ZM165.897 155.035V121.514H161.316V155.035H165.897ZM146.827 157.326H163.607V152.744H146.827V157.326ZM144.536 121.514V155.035H149.118V121.514H144.536ZM39.6615 29.3345C39.6615 42.1556 50.0988 52.577 62.9283 52.577V47.9956C52.6241 47.9956 44.243 39.6203 44.243 29.3345H39.6615ZM62.9283 6.09203C50.0988 6.09203 39.6615 16.5134 39.6615 29.3345H44.243C44.243 19.0487 52.6241 10.6735 62.9283 10.6735V6.09203ZM86.1951 29.3345C86.1951 16.5134 75.7578 6.09203 62.9283 6.09203V10.6735C73.2325 10.6735 81.6137 19.0487 81.6137 29.3345H86.1951ZM62.9283 52.577C75.7578 52.577 86.1951 42.1556 86.1951 29.3345H81.6137C81.6137 39.6203 73.2325 47.9956 62.9283 47.9956V52.577ZM52.6354 29.3345C52.6354 23.6699 57.253 19.0512 62.9283 19.0512V14.4698C54.7254 14.4698 48.0539 21.137 48.0539 29.3345H52.6354ZM62.9283 39.6129C57.2518 39.6129 52.6354 34.998 52.6354 29.3345H48.0539C48.0539 37.5332 54.7266 44.1943 62.9283 44.1943V39.6129ZM73.2212 29.3345C73.2212 34.9936 68.6042 39.6129 62.9283 39.6129V44.1943C71.1306 44.1943 77.8027 37.5277 77.8027 29.3345H73.2212ZM62.9283 19.0512C68.6036 19.0512 73.2212 23.6699 73.2212 29.3345H77.8027C77.8027 21.137 71.1312 14.4698 62.9283 14.4698V19.0512ZM16.7799 156.936C8.79155 156.936 2.29073 150.443 2.29073 142.466H-2.29073C-2.29073 152.979 6.26717 161.517 16.7799 161.517V156.936ZM31.269 142.466C31.269 150.438 24.7677 156.936 16.7799 156.936V161.517C27.293 161.517 35.8504 152.973 35.8504 142.466H31.269ZM16.7799 127.996C24.7722 127.996 31.269 134.493 31.269 142.466H35.8504C35.8504 131.959 27.2984 123.415 16.7799 123.415V127.996ZM2.29073 142.466C2.29073 134.489 8.78703 127.996 16.7799 127.996V123.415C6.26177 123.415 -2.29073 131.954 -2.29073 142.466H2.29073ZM16.7799 131.798C10.8886 131.798 6.10168 136.582 6.10168 142.466H10.6831C10.6831 139.115 13.4156 136.379 16.7799 136.379V131.798ZM27.463 142.466C27.463 136.574 22.6685 131.798 16.7799 131.798V136.379C20.1467 136.379 22.8815 139.113 22.8815 142.466H27.463ZM16.7799 153.139C22.6702 153.139 27.463 148.356 27.463 142.466H22.8815C22.8815 145.821 20.145 148.558 16.7799 148.558V153.139ZM6.10168 142.466C6.10168 148.348 10.8869 153.139 16.7799 153.139V148.558C13.4174 148.558 10.6831 145.818 10.6831 142.466H6.10168Z" fill="white" mask="url(#path-1-inside-1_109_6631)"/>
<path d="M141.145 236.589C142.051 236.59 142.786 237.318 142.786 238.223V271.318H149.169C150.076 271.318 150.81 272.047 150.811 272.952V280.932H162.073L162.083 280.942C162.938 280.999 163.613 281.703 163.613 282.571V322.901C163.613 323.806 162.878 324.535 161.972 324.535H150.093L157.087 343.848C157.189 344.061 157.246 344.298 157.246 344.548C157.246 345.454 156.511 346.183 155.604 346.183H83.709C83.1734 346.183 82.6701 345.922 82.3633 345.486C82.057 345.051 81.9801 344.495 82.1611 343.993L89.207 324.53H77.3281C76.4214 324.53 75.6865 323.801 75.6865 322.896V282.566C75.6867 281.661 76.4215 280.932 77.3281 280.932H88.4844V272.952C88.4846 272.046 89.2202 271.318 90.127 271.318H96.5088V238.223C96.509 237.318 97.2446 236.589 98.1514 236.589H141.145ZM86.042 342.91H108.472V339.608C108.472 338.703 109.207 337.974 110.113 337.974H129.187C130.093 337.974 130.828 338.703 130.828 339.608V342.91H153.259L146.606 324.53H92.6982L86.042 342.91ZM111.756 342.91H127.544V341.243H111.756V342.91ZM78.9707 321.262H160.325V284.201H78.9707V321.262ZM142.786 280.932H147.526V274.586H142.786V280.932ZM91.7686 280.932H96.5088V274.586H91.7686V280.932ZM99.793 280.693H139.502V239.858H99.793V280.693Z" fill="#6E6BFF" stroke="#6E6BFF" stroke-width="0.513628"/>
<path d="M152.523 286.646C155.344 286.646 157.636 288.939 157.636 291.76C157.636 294.58 155.344 296.873 152.523 296.873C149.702 296.873 147.41 294.58 147.41 291.76C147.41 288.939 149.702 286.646 152.523 286.646ZM152.523 289.898C151.496 289.898 150.662 290.733 150.662 291.76C150.662 292.786 151.496 293.62 152.523 293.62C153.549 293.62 154.383 292.786 154.383 291.76C154.383 290.733 153.549 289.898 152.523 289.898Z" fill="#6E6BFF" stroke="#6E6BFF" stroke-width="0.513628"/>
<path d="M140.569 286.646C143.39 286.646 145.683 288.939 145.683 291.76C145.683 294.58 143.39 296.873 140.569 296.873C137.748 296.873 135.456 294.58 135.456 291.76C135.456 288.939 137.748 286.646 140.569 286.646ZM140.569 289.898C139.543 289.898 138.708 290.733 138.708 291.76C138.708 292.786 139.543 293.62 140.569 293.62C141.596 293.62 142.43 292.786 142.43 291.76C142.43 290.733 141.596 289.898 140.569 289.898Z" fill="#6E6BFF" stroke="#6E6BFF" stroke-width="0.513628"/>
<path d="M144.523 302.336C147.216 302.336 149.418 304.452 149.418 307.075C149.418 309.699 147.216 311.815 144.523 311.815H94.7778C92.0848 311.815 89.8823 309.699 89.8823 307.075C89.8825 304.452 92.0849 302.336 94.7778 302.336H144.523ZM94.7778 305.528C93.8811 305.528 93.1686 306.229 93.1685 307.075C93.1685 307.921 93.881 308.622 94.7778 308.622H144.523C145.42 308.622 146.132 307.921 146.132 307.075C146.132 306.229 145.42 305.528 144.523 305.528H94.7778Z" fill="#6E6BFF" stroke="#6E6BFF" stroke-width="0.513628"/>
<path d="M135.815 246.302C136.744 246.302 137.463 247.101 137.463 248.052C137.463 249.004 136.744 249.803 135.815 249.803H102.737C101.808 249.803 101.088 249.004 101.088 248.052C101.088 247.101 101.808 246.302 102.737 246.302H135.815Z" fill="#6E6BFF" stroke="#6E6BFF" stroke-width="0.513628"/>
<path d="M135.815 253.026C136.744 253.026 137.463 253.826 137.463 254.777C137.463 255.728 136.744 256.528 135.815 256.528H102.737C101.808 256.528 101.088 255.728 101.088 254.777C101.088 253.826 101.808 253.026 102.737 253.026H135.815Z" fill="#6E6BFF" stroke="#6E6BFF" stroke-width="0.513628"/>
<path d="M135.815 259.75C136.672 259.75 137.463 260.317 137.463 261.128C137.463 261.939 136.672 262.505 135.815 262.505H102.737C101.88 262.505 101.089 261.939 101.088 261.128C101.088 260.317 101.88 259.75 102.737 259.75H135.815Z" fill="#6E6BFF" stroke="#6E6BFF" stroke-width="0.513628"/>
<path d="M135.815 265.727C136.744 265.727 137.463 266.527 137.463 267.478C137.463 268.429 136.744 269.229 135.815 269.229H102.737C101.808 269.229 101.088 268.429 101.088 267.478C101.088 266.527 101.808 265.727 102.737 265.727H135.815Z" fill="#6E6BFF" stroke="#6E6BFF" stroke-width="0.513628"/>
<path d="M135.815 272.451C136.744 272.451 137.463 273.251 137.463 274.202C137.463 275.153 136.744 275.953 135.815 275.953H102.737C101.808 275.953 101.088 275.153 101.088 274.202C101.088 273.251 101.808 272.451 102.737 272.451H135.815Z" fill="#6E6BFF" stroke="#6E6BFF" stroke-width="0.513628"/>
</svg>
